<svg id="svg" version="1.1" xmlns="http://www.w3.org/2000/svg" xmlns:xlink="http://www.w3.org/1999/xlink" width="400" height="400" viewBox="0, 0, 400,400"><g id="svgg"><path id="path0" d="M110.837 148.154 C 106.207 149.828,106.374 147.705,106.495 203.400 L 106.600 251.400 139.999 251.400 L 173.398 251.400 174.070 245.200 C 174.440 241.790,175.126 235.670,175.595 231.600 L 176.448 224.200 174.995 221.063 C 167.020 203.846,177.848 184.305,196.700 181.893 C 218.378 179.120,234.631 202.124,224.781 221.638 L 223.507 224.161 223.962 227.581 C 224.211 229.461,224.867 235.140,225.419 240.200 C 225.971 245.260,226.522 249.896,226.644 250.502 L 226.865 251.605 260.132 251.502 L 293.400 251.400 293.600 222.300 L 293.800 193.200 294.911 191.808 C 295.717 190.797,296.621 190.242,298.211 189.780 L 300.400 189.143 300.400 181.845 L 300.400 174.546 298.217 173.858 C 296.683 173.374,295.681 172.742,294.849 171.733 L 293.665 170.297 293.531 161.448 C 293.371 150.863,292.859 149.401,288.840 148.055 C 286.795 147.370,112.737 147.467,110.837 148.154 " stroke="none" fill="#c75c66" fill-rule="evenodd"></path><path id="path1" d="M33.657 265.139 C 32.222 266.676,30.595 270.104,30.021 272.800 C 29.675 274.426,29.585 286.646,29.676 319.600 C 29.815 369.493,29.581 365.574,32.693 370.261 L 34.113 372.400 50.662 372.400 C 63.157 372.400,67.430 372.522,68.105 372.900 C 69.826 373.862,71.186 375.588,71.638 377.387 L 72.095 379.200 79.247 379.200 L 86.400 379.200 86.400 378.238 C 86.400 376.738,88.029 374.054,89.274 373.503 C 89.893 373.229,90.400 372.869,90.400 372.702 C 90.400 372.536,155.009 372.400,233.976 372.400 C 329.263 372.400,377.636 372.265,377.800 372.000 C 377.936 371.780,378.380 371.600,378.786 371.600 C 380.883 371.600,386.400 366.949,386.400 365.180 C 386.400 364.777,386.560 364.348,386.756 364.227 C 387.611 363.699,387.734 358.739,387.884 319.000 C 388.051 274.889,388.038 274.511,386.278 270.867 C 385.321 268.887,381.498 265.200,380.401 265.200 C 379.997 265.200,379.592 264.975,379.500 264.700 C 379.367 264.301,344.443 264.179,207.031 264.096 L 34.729 263.992 33.657 265.139 M68.400 286.930 C 71.556 288.413,71.981 290.066,71.991 300.900 C 71.999 308.718,72.085 310.000,72.600 310.000 C 72.930 310.000,73.200 309.841,73.200 309.647 C 73.200 309.452,73.515 309.193,73.900 309.071 C 74.836 308.775,76.966 307.476,77.133 307.100 C 77.207 306.935,77.612 306.800,78.033 306.800 C 78.455 306.800,78.800 306.653,78.800 306.474 C 78.800 306.295,79.475 305.783,80.300 305.336 C 81.125 304.889,82.520 304.102,83.400 303.587 C 89.371 300.095,90.472 299.838,93.204 301.296 C 95.646 302.600,97.928 306.632,96.840 307.720 C 96.598 307.962,96.400 308.556,96.400 309.040 C 96.400 310.010,93.848 312.800,92.960 312.800 C 92.652 312.800,92.400 312.952,92.400 313.137 C 92.400 313.323,91.545 313.905,90.500 314.432 C 89.455 314.958,88.510 315.482,88.400 315.595 C 88.290 315.708,87.770 316.042,87.245 316.338 C 78.730 321.132,78.422 321.335,78.953 321.804 C 79.199 322.022,80.121 322.574,81.000 323.030 C 83.074 324.107,84.549 324.949,84.800 325.201 C 84.910 325.311,85.540 325.671,86.200 326.000 C 86.860 326.329,87.490 326.689,87.600 326.799 C 87.794 326.994,88.077 327.160,91.155 328.885 C 93.627 330.271,95.545 331.766,95.920 332.600 C 96.860 334.687,97.156 336.135,96.785 336.827 C 96.573 337.223,96.400 337.835,96.400 338.187 C 96.400 338.991,93.829 341.600,93.037 341.600 C 92.713 341.600,92.336 341.780,92.200 342.000 C 92.064 342.220,91.344 342.400,90.600 342.400 C 89.856 342.400,89.136 342.220,89.000 342.000 C 88.864 341.780,88.466 341.600,88.116 341.600 C 87.765 341.600,86.021 340.759,84.240 339.732 C 82.459 338.705,80.012 337.325,78.801 336.666 C 77.590 336.007,76.510 335.362,76.400 335.231 C 76.290 335.101,75.267 334.495,74.126 333.886 L 72.052 332.778 71.926 342.489 C 71.763 355.054,71.107 356.400,65.151 356.400 C 62.723 356.400,62.621 356.356,60.931 354.593 L 59.200 352.786 59.200 342.590 L 59.200 332.393 58.300 332.897 C 57.805 333.173,57.310 333.490,57.200 333.600 C 57.090 333.710,56.570 334.042,56.045 334.338 C 55.520 334.633,54.530 335.196,53.845 335.587 C 46.709 339.668,44.646 340.800,44.349 340.800 C 44.157 340.800,44.000 340.980,44.000 341.200 C 44.000 341.420,43.651 341.600,43.224 341.600 C 42.797 341.600,42.336 341.780,42.200 342.000 C 41.520 343.100,36.947 341.810,35.595 340.137 C 33.702 337.794,33.431 334.857,34.900 332.615 C 35.710 331.379,40.619 328.000,41.605 328.000 C 41.822 328.000,42.000 327.820,42.000 327.600 C 42.000 327.380,42.278 327.200,42.617 327.200 C 42.956 327.200,43.620 326.840,44.092 326.400 C 44.564 325.960,45.187 325.600,45.475 325.600 C 45.764 325.600,46.000 325.420,46.000 325.200 C 46.000 324.980,46.360 324.800,46.800 324.800 C 47.240 324.800,47.600 324.641,47.600 324.447 C 47.600 324.252,47.915 323.993,48.300 323.871 C 50.525 323.166,52.715 321.296,51.749 320.925 C 51.359 320.775,49.909 319.966,48.527 319.126 C 47.145 318.287,45.831 317.600,45.607 317.600 C 45.383 317.600,45.199 317.465,45.197 317.300 C 45.195 317.135,44.790 316.813,44.297 316.583 C 42.434 315.718,39.795 314.189,39.667 313.900 C 39.593 313.735,39.364 313.600,39.158 313.600 C 35.978 313.600,32.822 307.296,34.500 304.295 C 37.187 299.488,39.964 299.323,47.300 303.538 C 48.807 304.404,50.670 305.463,52.445 306.462 C 52.970 306.758,53.490 307.090,53.600 307.201 C 53.710 307.311,54.340 307.671,55.000 308.000 C 55.660 308.329,56.290 308.689,56.400 308.799 C 56.510 308.910,57.185 309.325,57.900 309.723 L 59.200 310.445 59.200 300.243 L 59.200 290.040 60.900 288.249 C 62.989 286.048,65.560 285.596,68.400 286.930 M249.461 288.240 L 251.200 289.979 251.200 299.989 C 251.200 306.486,251.342 310.000,251.605 310.000 C 252.002 310.000,253.604 309.197,254.000 308.799 C 254.110 308.689,254.740 308.329,255.400 308.000 C 256.060 307.671,256.690 307.311,256.800 307.201 C 257.194 306.805,259.413 305.546,260.100 305.329 C 260.485 305.207,260.800 304.948,260.800 304.753 C 260.800 304.559,260.972 304.400,261.182 304.400 C 261.393 304.400,262.518 303.830,263.682 303.133 C 269.869 299.430,273.072 299.640,275.500 303.910 C 277.081 306.690,275.020 312.797,272.500 312.800 C 272.225 312.800,272.000 312.959,272.000 313.153 C 272.000 313.348,271.685 313.607,271.300 313.729 C 270.613 313.946,268.394 315.205,268.000 315.601 C 267.890 315.711,267.260 316.071,266.600 316.401 C 265.940 316.730,264.050 317.819,262.400 318.820 C 260.750 319.820,259.072 320.765,258.670 320.918 C 257.686 321.295,259.850 323.158,262.100 323.871 C 262.485 323.993,262.800 324.252,262.800 324.447 C 262.800 324.641,263.160 324.800,263.600 324.800 C 264.040 324.800,264.400 324.980,264.400 325.200 C 264.400 325.420,264.670 325.600,265.000 325.600 C 265.330 325.600,265.600 325.736,265.600 325.902 C 265.600 326.069,266.185 326.459,266.900 326.770 C 267.615 327.081,268.290 327.445,268.400 327.578 C 268.510 327.711,269.490 328.265,270.577 328.810 C 274.524 330.786,276.000 332.741,276.000 335.989 C 276.000 337.596,275.829 338.800,275.600 338.800 C 275.380 338.800,275.200 339.004,275.200 339.253 C 275.200 339.905,273.123 341.599,272.324 341.600 C 271.952 341.600,271.536 341.780,271.400 342.000 C 271.264 342.220,270.544 342.400,269.800 342.400 C 269.056 342.400,268.336 342.220,268.200 342.000 C 268.064 341.780,267.676 341.600,267.338 341.600 C 267.000 341.600,266.246 341.263,265.662 340.851 C 265.078 340.438,263.700 339.619,262.600 339.029 C 261.500 338.439,260.330 337.794,260.000 337.594 C 257.154 335.873,253.882 334.000,253.721 334.000 C 253.612 334.000,253.001 333.628,252.362 333.173 L 251.200 332.346 251.200 342.583 L 251.200 352.821 249.411 354.611 C 246.796 357.226,242.907 357.307,240.400 354.800 L 238.800 353.200 238.800 343.200 C 238.800 331.810,238.886 332.039,235.472 334.314 C 234.552 334.927,232.810 335.945,231.600 336.577 C 230.390 337.209,228.950 338.030,228.400 338.401 C 227.850 338.773,226.230 339.663,224.800 340.379 C 223.370 341.095,221.887 341.843,221.505 342.040 C 220.573 342.523,218.508 342.498,218.200 342.000 C 218.064 341.780,217.639 341.600,217.255 341.600 C 215.691 341.600,213.864 338.975,213.682 336.469 C 213.421 332.849,214.267 331.633,218.800 329.114 C 219.790 328.564,221.410 327.630,222.400 327.039 C 223.390 326.448,224.515 325.862,224.900 325.736 C 225.285 325.610,225.600 325.348,225.600 325.153 C 225.600 324.959,225.960 324.800,226.400 324.800 C 226.840 324.800,227.200 324.650,227.200 324.468 C 227.200 324.285,227.695 323.883,228.300 323.575 C 228.905 323.266,229.967 322.656,230.661 322.219 L 231.921 321.423 230.661 320.653 C 229.281 319.809,227.469 318.787,225.000 317.460 C 224.120 316.987,223.310 316.510,223.200 316.400 C 223.090 316.290,222.570 315.958,222.045 315.662 C 221.520 315.367,220.510 314.799,219.800 314.400 C 217.216 312.948,216.642 312.585,215.692 311.800 C 211.270 308.146,214.203 300.400,220.008 300.400 C 221.080 300.400,226.633 303.033,227.600 304.000 C 227.710 304.110,228.230 304.442,228.755 304.738 C 231.286 306.163,232.339 306.770,234.000 307.761 C 234.990 308.352,236.115 308.938,236.500 309.064 C 236.885 309.190,237.200 309.452,237.200 309.647 C 237.200 309.841,237.560 310.000,238.000 310.000 C 238.779 310.000,238.800 309.733,238.800 299.800 C 238.800 294.190,238.937 289.600,239.105 289.600 C 239.273 289.600,239.588 289.210,239.805 288.733 C 240.022 288.256,240.560 287.671,241.000 287.433 C 241.440 287.195,241.892 286.880,242.003 286.733 C 242.276 286.374,244.676 286.164,246.361 286.351 C 247.316 286.457,248.243 287.021,249.461 288.240 M158.000 286.705 C 158.000 286.873,158.390 287.188,158.867 287.405 C 159.344 287.622,159.929 288.160,160.167 288.600 C 160.405 289.040,160.773 289.524,160.984 289.675 C 161.204 289.833,161.438 294.234,161.533 299.975 C 161.707 310.614,161.720 310.671,163.600 309.200 C 164.150 308.770,164.825 308.414,165.100 308.409 C 165.375 308.404,165.600 308.254,165.600 308.075 C 165.600 307.896,166.230 307.502,167.000 307.200 C 167.770 306.898,168.400 306.525,168.400 306.372 C 168.400 306.219,168.715 305.987,169.100 305.858 C 169.844 305.607,171.599 304.617,173.458 303.399 C 178.083 300.368,180.457 299.830,183.062 301.221 C 187.648 303.669,187.485 310.958,182.800 312.929 C 182.470 313.068,181.300 313.734,180.200 314.409 C 179.100 315.083,177.885 315.738,177.500 315.864 C 177.115 315.990,176.800 316.231,176.800 316.400 C 176.800 316.569,176.485 316.813,176.100 316.942 C 175.715 317.072,174.860 317.506,174.200 317.907 C 173.540 318.308,171.960 319.233,170.688 319.963 C 168.443 321.251,168.048 322.400,169.849 322.400 C 170.152 322.400,170.400 322.559,170.400 322.753 C 170.400 322.948,170.715 323.207,171.100 323.329 C 172.036 323.625,174.166 324.924,174.333 325.300 C 174.407 325.465,174.797 325.600,175.200 325.600 C 175.603 325.600,175.993 325.735,176.067 325.900 C 176.234 326.276,178.364 327.575,179.300 327.871 C 179.685 327.993,180.000 328.252,180.000 328.447 C 180.000 328.641,180.225 328.803,180.500 328.808 C 186.005 328.891,188.520 338.964,183.603 341.231 C 183.051 341.485,182.287 341.852,181.905 342.047 C 180.967 342.524,178.906 342.495,178.600 342.000 C 178.464 341.780,178.118 341.600,177.832 341.600 C 177.329 341.600,174.667 340.185,169.200 337.011 C 167.770 336.181,165.970 335.147,165.200 334.713 C 164.430 334.280,163.629 333.762,163.420 333.562 C 161.831 332.047,161.600 332.927,161.597 340.500 C 161.593 351.653,161.399 353.001,159.536 354.864 C 156.807 357.593,151.433 356.854,149.505 353.484 C 149.152 352.867,148.940 349.619,148.800 342.720 L 148.600 332.840 147.200 333.510 C 146.430 333.879,145.620 334.326,145.400 334.504 C 144.382 335.329,133.052 341.600,132.580 341.600 C 132.287 341.600,131.936 341.780,131.800 342.000 C 131.664 342.220,130.944 342.400,130.200 342.400 C 129.456 342.400,128.736 342.220,128.600 342.000 C 128.464 341.780,128.048 341.600,127.676 341.600 C 124.602 341.597,122.740 335.127,124.972 332.201 C 125.910 330.971,129.213 328.768,131.900 327.580 C 132.615 327.263,133.200 326.869,133.200 326.702 C 133.200 326.536,133.470 326.400,133.800 326.400 C 134.130 326.400,134.400 326.254,134.400 326.075 C 134.400 325.896,135.030 325.502,135.800 325.200 C 136.570 324.898,137.200 324.525,137.200 324.372 C 137.200 324.219,137.515 323.990,137.900 323.864 C 139.115 323.465,141.672 321.816,141.677 321.428 C 141.679 321.223,140.898 320.612,139.941 320.071 C 138.301 319.144,137.435 318.650,134.300 316.856 C 133.585 316.447,132.047 315.547,130.882 314.856 C 129.718 314.165,128.593 313.600,128.382 313.600 C 128.172 313.600,128.000 313.420,128.000 313.200 C 128.000 312.980,127.775 312.800,127.500 312.800 C 125.793 312.798,124.000 309.827,124.000 307.000 C 124.000 301.200,131.395 298.148,135.200 302.378 C 135.385 302.584,136.204 303.071,138.200 304.162 C 138.640 304.403,139.090 304.694,139.200 304.810 C 139.310 304.925,140.255 305.465,141.300 306.009 C 142.345 306.553,143.200 307.134,143.200 307.299 C 143.200 307.465,143.560 307.600,144.000 307.600 C 144.440 307.600,144.800 307.780,144.800 308.000 C 144.800 308.220,145.025 308.404,145.300 308.409 C 145.575 308.414,146.250 308.770,146.800 309.200 C 148.790 310.756,148.800 310.712,148.800 300.380 C 148.800 289.777,148.885 289.337,151.292 287.440 C 152.580 286.424,158.000 285.831,158.000 286.705 M337.600 286.732 C 337.600 286.915,338.005 287.282,338.501 287.547 C 340.622 288.682,340.800 289.664,340.800 300.232 C 340.800 305.605,340.944 310.000,341.120 310.000 C 341.700 310.000,343.594 309.006,343.597 308.700 C 343.599 308.535,343.960 308.400,344.400 308.400 C 344.840 308.400,345.200 308.241,345.200 308.047 C 345.200 307.852,345.515 307.593,345.900 307.471 C 346.585 307.254,348.804 305.996,349.200 305.600 C 349.310 305.490,349.830 305.158,350.355 304.862 C 350.880 304.567,351.960 303.954,352.755 303.501 C 360.072 299.327,362.819 299.498,365.500 304.295 C 367.199 307.334,364.052 313.600,360.828 313.600 C 360.593 313.600,360.400 313.759,360.400 313.953 C 360.400 314.148,360.085 314.407,359.700 314.529 C 359.013 314.746,356.794 316.005,356.400 316.401 C 356.290 316.511,355.667 316.871,355.015 317.201 C 354.363 317.530,352.447 318.616,350.758 319.614 L 347.686 321.428 349.037 322.314 C 349.781 322.801,350.571 323.200,350.794 323.200 C 351.017 323.200,351.200 323.336,351.200 323.502 C 351.200 323.669,351.785 324.059,352.500 324.370 C 353.215 324.681,353.890 325.040,354.000 325.168 C 354.234 325.439,355.558 326.207,357.800 327.370 C 358.680 327.826,359.490 328.311,359.600 328.446 C 359.710 328.582,360.520 329.066,361.400 329.522 C 363.242 330.477,364.782 331.820,365.500 333.099 C 366.094 334.157,366.174 338.400,365.600 338.400 C 365.380 338.400,365.200 338.615,365.200 338.878 C 365.200 339.624,363.130 341.600,362.349 341.600 C 361.963 341.600,361.536 341.780,361.400 342.000 C 361.264 342.220,360.544 342.400,359.800 342.400 C 359.056 342.400,358.336 342.220,358.200 342.000 C 358.064 341.780,357.513 341.600,356.976 341.600 C 356.439 341.600,356.000 341.420,356.000 341.200 C 356.000 340.980,355.817 340.800,355.593 340.800 C 355.369 340.800,353.794 339.980,352.093 338.978 C 350.392 337.975,348.660 336.968,348.245 336.740 C 347.537 336.351,346.187 335.594,343.955 334.338 C 343.430 334.042,342.910 333.710,342.800 333.600 C 342.690 333.490,342.195 333.173,341.700 332.897 L 340.800 332.393 340.800 342.411 C 340.800 353.291,340.771 353.448,338.422 355.486 C 337.258 356.494,333.055 356.771,331.474 355.943 C 328.520 354.396,328.013 352.314,328.006 341.687 L 328.000 332.774 326.300 333.741 C 325.365 334.273,322.800 335.743,320.600 337.007 C 313.773 340.931,312.497 341.600,311.838 341.600 C 311.487 341.600,311.200 341.780,311.200 342.000 C 311.200 342.220,310.491 342.400,309.624 342.400 C 308.757 342.400,307.936 342.220,307.800 342.000 C 307.664 341.780,307.248 341.596,306.876 341.591 C 305.921 341.579,303.900 339.096,303.390 337.307 C 302.973 335.846,303.140 334.705,304.080 332.588 C 304.565 331.496,308.323 328.941,312.400 326.932 C 313.170 326.552,313.890 326.142,314.000 326.021 C 314.110 325.899,314.605 325.575,315.100 325.300 C 315.595 325.025,316.405 324.575,316.900 324.300 C 317.395 324.025,317.890 323.710,318.000 323.599 C 318.110 323.489,318.740 323.129,319.400 322.799 C 321.954 321.524,321.813 321.330,316.000 318.141 C 312.753 316.360,311.823 315.823,311.600 315.600 C 311.204 315.204,308.985 313.946,308.300 313.729 C 307.915 313.607,307.600 313.348,307.600 313.153 C 307.600 312.959,307.348 312.800,307.040 312.800 C 304.966 312.800,302.747 308.204,303.440 305.342 C 304.658 300.314,312.056 299.047,316.000 303.191 C 316.110 303.307,316.740 303.671,317.400 304.000 C 318.060 304.329,318.690 304.689,318.800 304.799 C 318.910 304.910,319.405 305.225,319.900 305.500 C 320.395 305.775,321.205 306.225,321.700 306.500 C 322.195 306.775,322.690 307.090,322.800 307.200 C 323.196 307.596,325.415 308.854,326.100 309.071 C 326.485 309.193,326.800 309.452,326.800 309.647 C 326.800 309.841,327.070 310.000,327.400 310.000 C 327.915 310.000,328.000 308.766,328.000 301.294 C 328.000 292.319,328.546 288.840,330.095 287.946 C 330.373 287.786,330.960 287.378,331.400 287.040 C 332.257 286.382,337.600 286.117,337.600 286.732 " stroke="none" fill="#a4f4c3" fill-rule="evenodd"></path><path id="path2" d="M194.200 14.800 C 194.064 15.020,192.354 15.200,190.400 15.200 C 188.446 15.200,186.736 15.380,186.600 15.600 C 186.464 15.820,185.463 16.000,184.376 16.000 C 183.289 16.000,182.400 16.180,182.400 16.400 C 182.400 16.620,181.590 16.800,180.600 16.800 C 179.610 16.800,178.800 16.980,178.800 17.200 C 178.800 17.420,178.181 17.600,177.424 17.600 C 176.667 17.600,175.936 17.780,175.800 18.000 C 175.664 18.220,175.023 18.400,174.376 18.400 C 173.729 18.400,173.200 18.580,173.200 18.800 C 173.200 19.020,172.660 19.200,172.000 19.200 C 171.340 19.200,170.800 19.380,170.800 19.600 C 170.800 19.820,170.361 20.000,169.824 20.000 C 169.287 20.000,168.736 20.180,168.600 20.400 C 168.464 20.620,168.003 20.800,167.576 20.800 C 167.149 20.800,166.800 20.980,166.800 21.200 C 166.800 21.420,166.440 21.600,166.000 21.600 C 165.560 21.600,165.200 21.780,165.200 22.000 C 165.200 22.220,164.761 22.400,164.224 22.400 C 163.687 22.400,163.136 22.580,163.000 22.800 C 162.864 23.020,162.403 23.200,161.976 23.200 C 161.549 23.200,161.200 23.380,161.200 23.600 C 161.200 23.820,160.930 24.000,160.600 24.000 C 160.270 24.000,160.000 24.180,160.000 24.400 C 160.000 24.620,159.662 24.800,159.249 24.800 C 158.836 24.800,158.274 25.070,158.000 25.400 C 157.726 25.730,157.164 26.000,156.751 26.000 C 156.338 26.000,156.000 26.180,156.000 26.400 C 156.000 26.620,155.764 26.800,155.475 26.800 C 155.187 26.800,154.564 27.160,154.092 27.600 C 153.620 28.040,152.956 28.400,152.617 28.400 C 152.278 28.400,152.000 28.550,152.000 28.732 C 152.000 28.915,151.505 29.319,150.900 29.630 C 150.295 29.940,149.509 30.511,149.153 30.897 C 148.797 31.284,148.324 31.600,148.101 31.600 C 147.879 31.600,146.955 32.320,146.048 33.200 C 145.141 34.080,144.313 34.800,144.209 34.800 C 143.681 34.800,130.801 48.157,130.799 48.707 C 130.799 48.868,130.259 49.630,129.600 50.400 C 128.941 51.170,128.401 51.943,128.401 52.117 C 128.400 52.291,128.040 52.820,127.600 53.292 C 127.160 53.764,126.800 54.387,126.800 54.675 C 126.800 54.964,126.647 55.200,126.461 55.200 C 126.274 55.200,125.784 55.965,125.372 56.900 C 124.959 57.835,124.525 58.690,124.406 58.800 C 124.287 58.910,123.742 59.900,123.195 61.000 C 122.648 62.100,122.065 63.060,121.900 63.133 C 121.735 63.207,121.600 63.702,121.600 64.233 C 121.600 64.765,121.420 65.200,121.200 65.200 C 120.980 65.200,120.800 65.560,120.800 66.000 C 120.800 66.440,120.620 66.800,120.400 66.800 C 120.180 66.800,120.000 67.160,120.000 67.600 C 120.000 68.040,119.820 68.400,119.600 68.400 C 119.380 68.400,119.200 68.940,119.200 69.600 C 119.200 70.260,119.020 70.800,118.800 70.800 C 118.580 70.800,118.400 71.340,118.400 72.000 C 118.400 72.660,118.220 73.200,118.000 73.200 C 117.780 73.200,117.600 73.740,117.600 74.400 C 117.600 75.060,117.420 75.600,117.200 75.600 C 116.980 75.600,116.800 76.039,116.800 76.576 C 116.800 77.113,116.620 77.664,116.400 77.800 C 116.180 77.936,116.000 78.667,116.000 79.424 C 116.000 80.181,115.820 80.800,115.600 80.800 C 115.380 80.800,115.200 81.700,115.200 82.800 C 115.200 83.900,115.020 84.800,114.800 84.800 C 114.578 84.800,114.400 85.856,114.400 87.167 C 114.400 88.536,114.214 89.595,113.959 89.680 C 113.648 89.784,113.453 96.438,113.299 112.232 L 113.080 134.638 112.060 135.119 C 111.499 135.383,110.187 135.600,109.144 135.600 C 108.101 135.600,107.136 135.780,107.000 136.000 C 106.864 136.220,106.403 136.400,105.976 136.400 C 105.549 136.400,105.200 136.580,105.200 136.800 C 105.200 137.020,104.840 137.200,104.400 137.200 C 103.960 137.200,103.600 137.380,103.600 137.600 C 103.600 137.820,103.334 138.000,103.010 138.000 C 102.432 138.000,97.200 142.830,97.200 143.363 C 97.200 143.512,96.840 144.020,96.400 144.492 C 95.960 144.964,95.600 145.767,95.600 146.275 C 95.600 146.784,95.420 147.200,95.200 147.200 C 94.980 147.200,94.800 147.729,94.800 148.376 C 94.800 149.023,94.620 149.664,94.400 149.800 C 94.137 149.963,94.000 167.337,94.000 200.624 L 94.000 251.200 56.200 251.200 C 31.267 251.200,18.400 251.336,18.400 251.600 C 18.400 251.820,17.860 252.000,17.200 252.000 C 16.540 252.000,16.000 252.180,16.000 252.400 C 16.000 252.620,15.460 252.800,14.800 252.800 C 14.140 252.800,13.600 252.980,13.600 253.200 C 13.600 253.420,13.280 253.600,12.888 253.600 C 12.497 253.600,11.917 253.960,11.600 254.400 C 11.283 254.840,10.796 255.200,10.519 255.200 C 9.455 255.200,4.403 260.270,3.232 262.512 C 2.920 263.111,2.515 263.600,2.332 263.600 C 2.150 263.600,2.000 263.960,2.000 264.400 C 2.000 264.840,1.820 265.200,1.600 265.200 C 1.380 265.200,1.200 265.614,1.200 266.120 C 1.200 266.626,0.975 267.265,0.700 267.540 C -0.034 268.274,-0.034 368.855,0.700 369.100 C 0.975 369.192,1.200 369.612,1.200 370.033 C 1.200 370.455,1.380 370.800,1.600 370.800 C 1.820 370.800,2.000 371.160,2.000 371.600 C 2.000 372.040,2.180 372.400,2.400 372.400 C 2.620 372.400,2.800 372.636,2.800 372.925 C 2.800 373.213,3.160 373.836,3.600 374.308 C 4.040 374.780,4.400 375.268,4.400 375.392 C 4.400 375.744,8.744 380.000,9.103 380.000 C 9.279 380.000,9.683 380.360,10.000 380.800 C 10.317 381.240,10.897 381.600,11.288 381.600 C 11.680 381.600,12.001 381.735,12.003 381.900 C 12.007 382.259,13.944 383.200,14.680 383.200 C 14.966 383.200,15.200 383.380,15.200 383.600 C 15.200 383.820,15.740 384.000,16.400 384.000 C 17.060 384.000,17.600 384.180,17.600 384.400 C 17.600 384.620,18.500 384.800,19.600 384.800 C 20.700 384.800,21.600 384.980,21.600 385.200 C 21.600 385.462,29.459 385.600,44.376 385.600 C 59.129 385.600,67.240 385.459,67.400 385.200 C 67.536 384.980,67.913 384.800,68.237 384.800 C 68.985 384.800,71.393 382.414,71.687 381.381 C 71.809 380.952,72.030 380.309,72.177 379.953 C 72.363 379.504,72.193 379.239,71.623 379.090 C 71.113 378.957,70.800 378.546,70.800 378.011 C 70.800 377.092,70.159 375.682,69.435 375.008 C 67.651 373.347,68.510 373.409,44.439 373.200 L 21.400 373.000 19.084 371.827 C 16.251 370.393,13.849 367.862,12.565 364.960 L 11.600 362.777 11.600 318.317 C 11.600 270.431,11.503 272.624,13.762 269.200 C 15.350 266.793,16.530 265.796,19.457 264.385 L 21.914 263.200 199.863 263.200 C 373.068 263.200,377.866 263.220,379.870 263.952 C 383.333 265.218,387.600 269.464,387.600 271.645 C 387.600 272.034,387.780 272.464,388.000 272.600 C 388.647 273.000,388.529 362.211,387.879 364.000 C 386.613 367.485,384.373 370.050,380.957 371.926 L 379.000 373.000 234.760 373.200 L 90.520 373.400 89.060 374.860 C 88.150 375.770,87.600 376.701,87.600 377.331 C 87.600 377.888,87.330 378.613,87.000 378.943 C 86.329 379.614,86.179 381.600,86.800 381.600 C 87.020 381.600,87.200 381.878,87.200 382.218 C 87.200 383.190,89.059 384.800,90.182 384.800 C 90.742 384.800,91.200 384.980,91.200 385.200 C 91.200 385.466,139.333 385.600,234.800 385.600 C 330.267 385.600,378.400 385.466,378.400 385.200 C 378.400 384.980,379.300 384.800,380.400 384.800 C 381.500 384.800,382.400 384.620,382.400 384.400 C 382.400 384.180,382.940 384.000,383.600 384.000 C 384.260 384.000,384.800 383.820,384.800 383.600 C 384.800 383.380,385.034 383.200,385.320 383.200 C 386.056 383.200,387.993 382.259,387.997 381.900 C 387.999 381.735,388.320 381.600,388.712 381.600 C 389.103 381.600,389.683 381.240,390.000 380.800 C 390.317 380.360,390.721 380.000,390.897 380.000 C 391.256 380.000,395.600 375.744,395.600 375.392 C 395.600 375.268,395.960 374.780,396.400 374.308 C 396.840 373.836,397.200 373.213,397.200 372.925 C 397.200 372.636,397.380 372.400,397.600 372.400 C 397.820 372.400,398.000 372.040,398.000 371.600 C 398.000 371.160,398.180 370.800,398.400 370.800 C 398.620 370.800,398.800 370.476,398.800 370.080 C 398.800 369.684,399.025 369.135,399.300 368.860 C 399.695 368.465,399.800 357.795,399.800 318.200 C 399.800 278.605,399.695 267.935,399.300 267.540 C 399.025 267.265,398.800 266.626,398.800 266.120 C 398.800 265.614,398.620 265.200,398.400 265.200 C 398.180 265.200,398.000 264.840,398.000 264.400 C 398.000 263.960,397.850 263.600,397.668 263.600 C 397.485 263.600,397.080 263.111,396.768 262.512 C 395.925 260.897,394.710 259.552,391.069 256.200 C 390.591 255.760,389.705 255.145,389.100 254.832 C 388.495 254.520,388.000 254.115,388.000 253.932 C 388.000 253.750,387.640 253.600,387.200 253.600 C 386.760 253.600,386.400 253.420,386.400 253.200 C 386.400 252.980,385.860 252.800,385.200 252.800 C 384.540 252.800,384.000 252.620,384.000 252.400 C 384.000 252.180,383.460 252.000,382.800 252.000 C 382.140 252.000,381.600 251.820,381.600 251.600 C 381.600 251.336,368.733 251.200,343.800 251.200 L 306.000 251.200 306.000 222.000 C 306.000 202.800,305.863 192.800,305.600 192.800 C 305.380 192.800,305.200 192.506,305.200 192.147 C 305.200 191.259,303.203 189.601,302.133 189.600 C 301.657 189.600,301.192 189.377,301.101 189.104 C 300.982 188.747,300.740 188.803,300.239 189.304 C 299.856 189.687,299.089 190.000,298.533 190.000 C 297.317 190.000,295.581 191.173,294.553 192.690 C 293.838 193.744,293.790 195.250,293.600 222.800 L 293.400 251.800 260.003 251.800 L 226.607 251.800 226.114 248.400 C 225.575 244.684,225.070 240.477,224.385 234.000 C 224.141 231.690,223.755 228.569,223.528 227.065 C 223.128 224.407,223.152 224.255,224.407 221.665 C 226.775 216.777,226.867 216.385,227.091 210.200 C 227.993 185.277,198.144 172.363,180.486 190.037 C 178.525 191.999,175.595 196.335,174.835 198.400 C 174.551 199.170,174.177 200.160,174.004 200.600 C 172.816 203.611,172.275 213.015,173.158 215.281 C 173.355 215.787,173.754 217.010,174.045 218.000 C 174.335 218.990,175.092 220.790,175.727 222.000 C 176.867 224.171,176.876 224.244,176.441 227.500 C 175.953 231.149,175.329 236.324,175.004 239.400 C 174.888 240.500,174.614 243.110,174.395 245.200 C 174.176 247.290,173.855 249.630,173.682 250.400 L 173.367 251.800 140.784 251.910 C 122.863 251.971,107.792 251.922,107.294 251.801 L 106.388 251.582 106.494 201.660 L 106.600 151.738 107.721 150.268 C 109.941 147.357,101.542 147.600,200.000 147.600 C 298.454 147.600,290.058 147.357,292.279 150.267 L 293.400 151.735 293.608 160.768 C 293.738 166.397,293.988 170.101,294.272 170.600 C 294.956 171.803,296.477 173.074,297.600 173.381 C 298.150 173.532,299.175 173.948,299.878 174.307 C 300.952 174.854,301.311 174.876,302.118 174.444 C 303.712 173.591,305.200 172.147,305.200 171.453 C 305.200 171.094,305.380 170.800,305.600 170.800 C 305.856 170.800,306.000 167.075,306.000 160.424 C 306.000 153.937,305.850 149.955,305.600 149.800 C 305.380 149.664,305.200 149.023,305.200 148.376 C 305.200 147.729,305.020 147.200,304.800 147.200 C 304.580 147.200,304.400 146.784,304.400 146.275 C 304.400 145.767,304.040 144.964,303.600 144.492 C 303.160 144.020,302.800 143.512,302.800 143.363 C 302.800 142.830,297.568 138.000,296.990 138.000 C 296.666 138.000,296.400 137.820,296.400 137.600 C 296.400 137.380,296.040 137.200,295.600 137.200 C 295.160 137.200,294.800 137.020,294.800 136.800 C 294.800 136.580,294.451 136.400,294.024 136.400 C 293.597 136.400,293.136 136.220,293.000 136.000 C 292.864 135.780,291.899 135.600,290.856 135.600 C 289.813 135.600,288.501 135.383,287.940 135.119 L 286.920 134.638 286.701 112.232 C 286.547 96.438,286.352 89.784,286.041 89.680 C 285.787 89.596,285.600 88.542,285.600 87.190 C 285.600 85.902,285.420 84.736,285.200 84.600 C 284.980 84.464,284.800 83.553,284.800 82.576 C 284.800 81.599,284.620 80.800,284.400 80.800 C 284.180 80.800,284.000 80.181,284.000 79.424 C 284.000 78.667,283.820 77.936,283.600 77.800 C 283.380 77.664,283.200 77.124,283.200 76.600 C 283.200 76.076,283.020 75.536,282.800 75.400 C 282.580 75.264,282.400 74.724,282.400 74.200 C 282.400 73.676,282.220 73.136,282.000 73.000 C 281.780 72.864,281.600 72.313,281.600 71.776 C 281.600 71.239,281.420 70.800,281.200 70.800 C 280.980 70.800,280.800 70.260,280.800 69.600 C 280.800 68.940,280.620 68.400,280.400 68.400 C 280.180 68.400,280.000 68.040,280.000 67.600 C 280.000 67.160,279.820 66.800,279.600 66.800 C 279.380 66.800,279.200 66.350,279.200 65.800 C 279.200 65.250,279.020 64.800,278.800 64.800 C 278.580 64.800,278.400 64.566,278.400 64.280 C 278.400 63.544,277.459 61.607,277.100 61.603 C 276.935 61.601,276.800 61.240,276.800 60.800 C 276.800 60.360,276.620 60.000,276.400 60.000 C 276.180 60.000,276.000 59.730,276.000 59.400 C 276.000 59.070,275.865 58.799,275.700 58.799 C 275.535 58.798,275.067 57.988,274.660 56.999 C 274.254 56.009,273.759 55.200,273.560 55.200 C 273.362 55.200,273.200 54.880,273.200 54.488 C 273.200 54.097,272.840 53.517,272.400 53.200 C 271.960 52.883,271.600 52.343,271.600 52.000 C 271.600 51.657,271.240 51.117,270.800 50.800 C 270.360 50.483,270.000 50.015,270.000 49.760 C 270.000 49.505,269.280 48.555,268.400 47.648 C 267.520 46.741,266.800 45.851,266.800 45.670 C 266.800 45.489,266.064 44.634,265.164 43.770 C 264.265 42.907,261.775 40.490,259.632 38.400 C 255.270 34.147,252.369 31.600,251.886 31.600 C 251.709 31.600,251.128 31.164,250.595 30.631 C 250.062 30.098,249.260 29.546,248.813 29.404 C 248.366 29.262,248.000 28.978,248.000 28.773 C 248.000 28.568,247.764 28.400,247.475 28.400 C 247.187 28.400,246.564 28.040,246.092 27.600 C 245.620 27.160,244.956 26.800,244.617 26.800 C 244.278 26.800,244.000 26.665,244.000 26.500 C 244.000 26.335,242.832 25.660,241.405 25.000 C 239.978 24.340,238.808 23.665,238.805 23.500 C 238.802 23.335,238.440 23.200,238.000 23.200 C 237.560 23.200,237.200 23.020,237.200 22.800 C 237.200 22.580,236.750 22.400,236.200 22.400 C 235.650 22.400,235.200 22.220,235.200 22.000 C 235.200 21.780,234.750 21.600,234.200 21.600 C 233.650 21.600,233.200 21.420,233.200 21.200 C 233.200 20.980,232.840 20.800,232.400 20.800 C 231.960 20.800,231.600 20.620,231.600 20.400 C 231.600 20.180,231.060 20.000,230.400 20.000 C 229.740 20.000,229.200 19.820,229.200 19.600 C 229.200 19.380,228.660 19.200,228.000 19.200 C 227.340 19.200,226.800 19.020,226.800 18.800 C 226.800 18.580,226.260 18.400,225.600 18.400 C 224.940 18.400,224.400 18.220,224.400 18.000 C 224.400 17.780,223.770 17.600,223.000 17.600 C 222.230 17.600,221.600 17.420,221.600 17.200 C 221.600 16.980,220.801 16.800,219.824 16.800 C 218.847 16.800,217.936 16.620,217.800 16.400 C 217.664 16.180,216.663 16.000,215.576 16.000 C 214.489 16.000,213.600 15.820,213.600 15.600 C 213.600 15.362,212.075 15.200,209.824 15.200 C 207.737 15.200,205.937 15.021,205.800 14.800 C 205.654 14.564,203.270 14.400,200.000 14.400 C 196.730 14.400,194.346 14.564,194.200 14.800 M209.080 27.559 C 210.136 27.757,212.260 28.138,213.800 28.406 C 238.182 32.659,260.041 50.723,269.213 74.200 C 273.738 85.782,274.452 91.753,274.309 116.800 L 274.200 135.800 260.900 135.905 L 247.600 136.011 247.599 118.505 C 247.597 90.269,246.066 83.389,237.321 72.325 C 213.683 42.421,166.909 50.748,154.895 87.000 C 152.764 93.430,152.400 97.993,152.400 118.264 L 152.400 136.000 139.243 136.000 C 127.614 136.000,126.057 135.926,125.843 135.367 C 125.460 134.370,125.583 102.352,125.991 96.800 C 126.599 88.525,128.335 80.489,130.785 74.600 C 139.133 54.545,152.255 41.299,172.600 32.393 C 176.264 30.789,183.775 28.837,190.800 27.663 C 193.709 27.177,206.643 27.103,209.080 27.559 M200.400 66.400 C 200.400 66.633,201.725 66.800,203.576 66.800 C 205.323 66.800,206.864 66.980,207.000 67.200 C 207.136 67.420,207.867 67.600,208.624 67.600 C 209.381 67.600,210.000 67.780,210.000 68.000 C 210.000 68.220,210.362 68.400,210.805 68.400 C 211.583 68.400,211.969 68.542,213.895 69.538 C 214.387 69.792,214.979 70.000,215.211 70.000 C 215.443 70.000,216.020 70.360,216.492 70.800 C 216.964 71.240,217.587 71.600,217.875 71.600 C 218.164 71.600,218.400 71.780,218.400 72.000 C 218.400 72.220,218.676 72.400,219.014 72.400 C 219.352 72.400,220.027 72.768,220.514 73.218 C 222.316 74.881,223.812 75.999,224.236 76.000 C 224.475 76.000,224.880 76.457,225.134 77.015 C 225.632 78.109,225.785 78.316,227.578 80.320 C 228.228 81.047,228.870 81.992,229.006 82.420 C 229.143 82.849,229.422 83.200,229.627 83.200 C 229.832 83.200,230.000 83.545,230.000 83.967 C 230.000 84.388,230.135 84.793,230.300 84.867 C 230.732 85.059,232.400 88.372,232.400 89.038 C 232.400 89.347,232.580 89.600,232.800 89.600 C 233.020 89.600,233.200 90.050,233.200 90.600 C 233.200 91.150,233.362 91.600,233.560 91.600 C 234.300 91.600,234.501 95.913,234.656 115.100 L 234.815 134.800 200.007 134.800 L 165.200 134.800 165.200 115.224 C 165.200 102.604,165.342 95.559,165.600 95.400 C 165.820 95.264,166.000 94.454,166.000 93.600 C 166.000 92.746,166.180 91.936,166.400 91.800 C 166.620 91.664,166.800 91.113,166.800 90.576 C 166.800 90.039,166.980 89.600,167.200 89.600 C 167.420 89.600,167.600 89.347,167.600 89.038 C 167.600 88.372,169.268 85.059,169.700 84.867 C 169.865 84.793,170.000 84.388,170.000 83.967 C 170.000 83.545,170.168 83.200,170.373 83.200 C 170.578 83.200,170.857 82.849,170.994 82.420 C 171.130 81.992,171.772 81.047,172.422 80.320 C 173.819 78.758,173.990 78.537,174.912 77.100 C 175.301 76.495,175.793 76.000,176.006 76.000 C 176.219 76.000,176.800 75.651,177.297 75.224 C 177.794 74.797,178.740 73.987,179.400 73.424 C 180.060 72.861,180.825 72.401,181.100 72.400 C 181.375 72.400,181.600 72.241,181.600 72.047 C 181.600 71.852,181.915 71.593,182.300 71.471 C 182.685 71.349,183.540 70.941,184.200 70.564 C 186.114 69.471,186.749 69.200,187.395 69.200 C 187.728 69.200,188.000 69.020,188.000 68.800 C 188.000 68.580,188.450 68.400,189.000 68.400 C 189.550 68.400,190.000 68.220,190.000 68.000 C 190.000 67.780,190.720 67.600,191.600 67.600 C 192.480 67.600,193.200 67.420,193.200 67.200 C 193.200 66.967,194.533 66.800,196.400 66.800 C 198.267 66.800,199.600 66.633,199.600 66.400 C 199.600 66.180,199.780 66.000,200.000 66.000 C 200.220 66.000,200.400 66.180,200.400 66.400 M206.776 194.887 C 212.551 197.636,215.726 202.699,215.772 209.239 C 215.801 213.223,215.740 213.453,213.517 217.764 C 211.656 221.373,211.626 223.185,213.199 236.900 C 213.419 238.825,213.769 241.885,213.975 243.700 C 214.181 245.515,214.476 248.035,214.630 249.300 L 214.910 251.600 200.004 251.600 L 185.097 251.600 185.379 249.500 C 185.535 248.345,185.828 245.915,186.031 244.100 C 186.381 240.968,186.542 239.561,187.689 229.600 C 188.451 222.980,188.337 221.646,186.728 218.315 C 184.394 213.485,184.216 212.819,184.239 209.000 C 184.308 197.484,196.364 189.934,206.776 194.887 M63.400 287.380 C 62.740 287.680,61.750 288.407,61.200 288.994 L 60.200 290.063 60.000 300.399 C 59.890 306.084,59.663 310.872,59.495 311.039 C 59.207 311.327,58.178 310.859,54.700 308.862 C 53.875 308.388,52.570 307.640,51.800 307.200 C 48.444 305.282,47.659 304.825,45.200 303.355 C 39.195 299.764,33.148 303.158,35.337 308.891 C 35.957 310.515,39.097 313.200,40.376 313.200 C 40.609 313.200,40.800 313.380,40.800 313.600 C 40.800 313.820,40.970 314.000,41.178 314.000 C 41.387 314.000,43.570 315.170,46.030 316.600 C 48.491 318.030,50.622 319.200,50.767 319.200 C 50.912 319.200,51.653 319.727,52.415 320.370 C 53.939 321.658,53.837 321.901,51.200 323.277 C 50.650 323.564,50.110 323.889,50.000 324.000 C 49.890 324.111,49.262 324.471,48.605 324.801 C 47.948 325.130,46.286 326.075,44.912 326.900 C 43.538 327.725,42.231 328.400,42.007 328.400 C 41.783 328.400,41.600 328.559,41.600 328.753 C 41.600 328.948,41.285 329.213,40.900 329.342 C 33.337 331.889,32.954 341.200,40.412 341.200 C 42.229 341.200,42.513 341.060,52.480 335.257 C 55.933 333.246,58.945 331.600,59.172 331.600 C 59.869 331.600,59.986 333.055,60.095 343.075 L 60.200 352.749 61.320 353.917 C 63.841 356.547,67.338 356.418,69.653 353.609 L 70.800 352.218 70.800 342.096 C 70.800 333.729,70.898 331.937,71.367 331.757 C 71.679 331.638,74.874 333.238,78.467 335.315 C 88.682 341.218,88.645 341.200,90.652 341.200 C 94.873 341.200,97.481 336.448,95.120 333.062 C 94.036 331.508,94.048 331.516,88.500 328.343 C 84.439 326.021,82.879 325.134,80.755 323.938 C 80.230 323.642,79.710 323.310,79.600 323.199 C 79.490 323.089,78.905 322.744,78.300 322.432 C 76.388 321.446,77.312 320.696,87.000 315.365 C 87.440 315.123,88.753 314.357,89.918 313.662 C 91.082 312.968,92.192 312.400,92.384 312.400 C 92.575 312.400,93.467 311.565,94.366 310.544 C 97.114 307.422,96.229 303.408,92.474 301.958 C 90.331 301.130,88.878 301.498,84.700 303.928 C 83.875 304.408,82.570 305.160,81.800 305.600 C 81.030 306.040,79.770 306.760,79.000 307.200 C 77.456 308.082,75.425 309.235,73.955 310.062 C 73.430 310.358,72.888 310.753,72.752 310.939 C 72.616 311.126,72.166 311.214,71.752 311.134 C 71.046 310.999,70.988 310.368,70.800 300.723 C 70.613 291.107,70.547 290.385,69.764 289.328 C 68.268 287.310,65.452 286.448,63.400 287.380 M153.400 287.289 C 149.950 288.515,149.600 289.839,149.600 301.663 C 149.600 311.830,149.593 311.856,147.107 310.460 C 146.339 310.028,145.280 309.433,144.755 309.138 C 144.230 308.842,143.710 308.510,143.600 308.400 C 143.490 308.290,142.970 307.958,142.445 307.662 C 140.670 306.663,138.807 305.604,137.300 304.738 C 129.763 300.408,126.759 300.596,124.809 305.521 C 123.884 307.855,126.450 312.400,128.691 312.400 C 128.971 312.400,129.200 312.580,129.200 312.800 C 129.200 313.020,129.372 313.200,129.582 313.200 C 129.793 313.200,130.918 313.765,132.082 314.456 C 133.247 315.147,134.830 316.065,135.600 316.497 C 144.024 321.221,144.205 321.434,141.230 323.138 C 140.155 323.753,138.273 324.820,136.100 326.047 C 135.275 326.513,134.122 327.233,133.538 327.647 C 132.954 328.061,132.385 328.400,132.273 328.400 C 130.601 328.400,125.574 332.387,124.809 334.321 C 123.280 338.181,129.747 343.577,132.620 340.838 C 132.829 340.638,133.720 340.080,134.600 339.596 C 135.480 339.112,139.026 337.099,142.480 335.122 C 145.933 333.145,148.948 331.645,149.180 331.787 C 149.454 331.957,149.600 335.354,149.600 341.598 C 149.600 351.522,149.771 352.774,151.323 354.215 C 154.305 356.986,158.616 356.057,160.301 352.281 C 160.655 351.487,160.800 348.347,160.800 341.448 C 160.800 336.105,160.903 331.630,161.029 331.504 C 161.156 331.378,163.901 332.812,167.129 334.691 C 173.227 338.240,174.640 339.056,177.012 340.400 C 180.981 342.648,185.600 340.156,185.600 335.767 C 185.600 332.949,183.946 331.438,176.400 327.357 C 175.630 326.941,174.910 326.510,174.800 326.400 C 174.690 326.290,174.170 325.958,173.645 325.662 C 173.120 325.367,172.040 324.752,171.245 324.297 C 170.450 323.842,169.324 323.225,168.742 322.926 C 166.922 321.992,166.613 321.338,167.673 320.663 C 169.153 319.721,174.854 316.400,174.992 316.400 C 175.062 316.400,176.323 315.668,177.795 314.774 C 179.267 313.880,181.220 312.732,182.136 312.224 C 186.335 309.893,186.836 304.673,183.081 302.384 C 180.722 300.946,177.387 301.740,172.800 304.832 C 172.250 305.203,171.125 305.887,170.300 306.353 C 169.475 306.819,168.170 307.560,167.400 308.000 C 166.630 308.440,165.325 309.177,164.500 309.638 C 163.675 310.098,162.829 310.638,162.620 310.838 C 160.950 312.430,160.800 311.655,160.800 301.419 C 160.800 289.705,160.485 288.600,156.772 287.300 C 155.119 286.721,155.000 286.721,153.400 287.289 M243.000 287.321 C 239.623 288.632,239.200 290.225,239.200 301.649 C 239.200 312.159,239.173 312.256,236.800 310.400 C 236.250 309.970,235.575 309.614,235.300 309.609 C 235.025 309.604,234.800 309.454,234.800 309.275 C 234.800 309.096,234.170 308.702,233.400 308.400 C 232.630 308.098,232.000 307.704,232.000 307.525 C 232.000 307.346,231.828 307.200,231.618 307.200 C 231.407 307.200,230.282 306.631,229.118 305.936 C 221.581 301.436,219.478 300.824,216.919 302.384 C 212.976 304.788,213.640 309.803,218.250 312.446 C 220.481 313.726,224.450 315.978,228.661 318.357 C 233.398 321.032,234.397 322.708,231.300 322.787 C 231.025 322.794,230.799 322.935,230.797 323.100 C 230.795 323.265,230.390 323.598,229.897 323.840 C 228.006 324.769,225.391 326.210,225.200 326.429 C 225.090 326.555,224.730 326.776,224.400 326.920 C 224.070 327.064,222.900 327.724,221.800 328.386 C 220.700 329.049,218.990 330.048,218.000 330.605 C 213.747 333.002,213.136 337.791,216.756 340.368 C 219.250 342.144,221.301 341.581,229.000 337.002 C 234.404 333.788,238.367 331.600,238.781 331.600 C 239.061 331.600,239.200 334.743,239.200 341.072 C 239.200 353.024,239.574 354.289,243.479 355.566 C 244.873 356.021,245.383 356.025,246.479 355.591 C 250.166 354.131,250.400 353.297,250.400 341.600 C 250.400 330.081,249.905 330.670,256.430 334.440 C 262.366 337.871,263.533 338.539,265.500 339.638 C 266.325 340.098,267.171 340.638,267.380 340.838 C 268.208 341.627,271.674 341.238,273.031 340.203 C 277.314 336.937,276.019 332.611,269.800 329.410 C 269.140 329.070,267.700 328.246,266.600 327.578 C 265.500 326.911,264.285 326.262,263.900 326.136 C 263.515 326.010,263.200 325.748,263.200 325.553 C 263.200 325.359,263.022 325.200,262.805 325.200 C 262.108 325.200,256.800 321.855,256.800 321.416 C 256.800 321.183,257.184 320.753,257.653 320.460 C 258.900 319.681,268.746 314.012,270.497 313.065 C 275.744 310.226,276.955 306.214,273.549 302.951 C 270.973 300.483,268.843 301.049,259.282 306.740 C 258.118 307.433,256.993 308.000,256.782 308.000 C 256.572 308.000,256.400 308.159,256.400 308.353 C 256.400 308.548,256.085 308.810,255.700 308.936 C 255.315 309.062,254.212 309.633,253.248 310.205 C 250.394 311.901,250.453 312.096,250.319 300.648 C 250.207 291.038,250.152 290.392,249.364 289.328 C 247.900 287.353,245.153 286.486,243.000 287.321 M333.000 287.284 C 329.449 288.528,329.200 289.428,329.200 300.993 C 329.200 311.925,329.214 311.873,326.652 310.423 C 325.854 309.970,324.570 309.240,323.800 308.800 C 323.030 308.360,321.770 307.640,321.000 307.200 C 317.806 305.375,316.880 304.838,314.437 303.398 C 309.171 300.294,304.000 302.066,304.000 306.974 C 304.000 308.652,306.601 312.400,307.765 312.400 C 307.938 312.400,320.218 319.375,321.900 320.429 C 323.405 321.371,323.190 321.696,319.800 323.600 C 319.090 323.999,318.080 324.567,317.555 324.862 C 317.030 325.158,316.510 325.490,316.400 325.600 C 316.290 325.710,315.770 326.042,315.245 326.338 C 314.720 326.633,313.685 327.218,312.945 327.638 C 312.205 328.057,310.982 328.750,310.226 329.179 C 303.587 332.940,302.370 335.635,305.634 339.344 C 307.169 341.088,307.389 341.200,309.272 341.200 C 311.455 341.200,310.899 341.464,321.797 335.247 C 325.315 333.240,328.375 331.658,328.597 331.732 C 328.846 331.815,329.076 335.738,329.200 342.033 C 329.403 352.366,329.516 353.117,331.063 354.439 C 332.615 355.764,334.313 356.157,336.035 355.588 C 339.860 354.326,340.400 352.444,340.400 340.369 C 340.400 334.379,340.536 331.600,340.830 331.600 C 341.067 331.600,342.462 332.300,343.930 333.155 C 345.399 334.010,347.230 335.066,348.000 335.500 C 348.770 335.935,350.480 336.921,351.800 337.691 C 357.308 340.905,357.995 341.200,359.974 341.200 C 366.514 341.200,366.811 333.370,360.400 329.958 C 359.410 329.431,358.510 328.910,358.400 328.800 C 358.290 328.690,357.770 328.358,357.245 328.062 C 352.659 325.480,348.247 322.932,346.819 322.040 C 345.758 321.378,347.262 320.348,358.500 314.042 C 363.746 311.098,363.751 311.094,364.641 308.963 C 366.116 305.434,363.599 301.600,359.807 301.600 C 358.395 301.600,356.938 302.175,353.900 303.932 C 353.075 304.410,351.815 305.135,351.100 305.544 C 350.385 305.953,348.847 306.853,347.682 307.544 C 346.518 308.235,345.489 308.800,345.396 308.800 C 345.304 308.800,344.376 309.340,343.336 310.000 C 340.265 311.948,340.400 312.310,340.400 302.146 C 340.400 290.595,339.926 288.821,336.451 287.365 C 334.902 286.716,334.637 286.710,333.000 287.284 " stroke="none" fill="#040504" fill-rule="evenodd"></path><path id="path3" d="M21.400 264.160 C 17.615 265.356,14.913 267.690,13.245 271.200 L 12.200 273.400 12.200 318.200 L 12.200 363.000 13.064 364.870 C 14.355 367.663,16.842 370.130,19.626 371.379 L 22.049 372.467 44.525 372.687 C 62.374 372.862,67.222 373.020,68.079 373.453 C 69.550 374.197,71.200 376.450,71.200 377.714 C 71.200 378.285,71.399 378.876,71.643 379.026 C 72.840 379.766,71.011 375.032,69.701 374.000 C 67.668 372.398,67.687 372.400,50.662 372.400 L 34.113 372.400 32.693 370.261 C 29.581 365.574,29.815 369.493,29.676 319.600 C 29.585 286.646,29.675 274.426,30.021 272.800 C 30.595 270.104,32.222 266.676,33.657 265.139 L 34.729 263.992 206.988 264.096 C 301.731 264.153,378.832 264.083,378.324 263.940 C 376.401 263.399,23.119 263.616,21.400 264.160 M379.600 264.800 C 379.600 265.020,379.945 265.200,380.368 265.200 C 382.230 265.200,387.153 271.040,387.228 273.338 C 387.244 273.812,387.427 274.560,387.635 275.000 C 387.910 275.583,387.954 275.329,387.797 274.067 C 387.365 270.610,384.558 266.737,381.244 265.023 C 379.833 264.293,379.600 264.261,379.600 264.800 M388.193 318.200 C 388.193 341.080,388.241 350.381,388.300 338.869 C 388.359 327.358,388.359 308.638,388.300 297.269 C 388.241 285.901,388.193 295.320,388.193 318.200 M64.000 286.329 C 62.033 286.510,59.185 289.494,59.236 291.320 L 59.272 292.600 59.661 291.248 C 60.792 287.315,64.830 285.554,68.438 287.419 C 71.047 288.769,71.197 289.489,71.199 300.700 C 71.200 310.744,71.425 312.301,72.600 310.400 C 72.736 310.180,72.657 310.000,72.424 310.000 C 72.138 310.000,71.997 307.033,71.991 300.900 C 71.979 288.016,70.714 285.711,64.000 286.329 M243.500 286.324 C 242.675 286.392,242.000 286.617,242.000 286.824 C 242.000 287.031,241.758 287.200,241.462 287.200 C 241.166 287.200,240.626 287.529,240.262 287.931 C 239.083 289.235,239.560 289.291,241.091 288.029 C 243.143 286.338,246.490 286.254,248.384 287.848 C 250.726 289.819,250.800 290.221,250.800 300.980 C 250.800 306.381,250.899 310.800,251.020 310.800 C 251.582 310.800,253.646 309.513,253.431 309.297 C 253.296 309.163,252.974 309.266,252.713 309.527 C 251.309 310.931,251.200 310.247,251.200 299.989 L 251.200 289.979 249.461 288.240 C 247.648 286.427,246.544 286.072,243.500 286.324 M151.292 287.440 C 148.885 289.337,148.800 289.777,148.800 300.380 C 148.800 310.712,148.790 310.756,146.800 309.200 C 146.250 308.770,145.590 308.414,145.333 308.409 C 145.077 308.404,144.798 308.193,144.713 307.940 C 144.629 307.687,144.311 307.563,144.007 307.664 C 143.539 307.820,148.251 310.800,148.965 310.800 C 149.094 310.800,149.200 306.381,149.200 300.980 C 149.200 290.221,149.274 289.819,151.616 287.848 C 153.510 286.254,156.857 286.338,158.909 288.029 C 159.729 288.705,160.400 289.093,160.400 288.891 C 160.400 288.388,159.044 287.200,158.469 287.200 C 158.211 287.200,158.000 287.020,158.000 286.800 C 158.000 285.852,152.661 286.361,151.292 287.440 M330.920 287.325 C 329.715 288.149,328.555 289.888,328.949 290.282 C 329.047 290.380,329.246 290.084,329.392 289.625 C 330.654 285.650,337.923 285.946,339.914 290.054 C 340.379 291.014,340.769 291.500,340.780 291.132 C 340.810 290.124,339.518 288.091,338.501 287.547 C 338.005 287.282,337.600 286.915,337.600 286.732 C 337.600 285.957,332.223 286.434,330.920 287.325 M160.702 290.600 C 160.807 291.150,160.962 291.600,161.047 291.600 C 161.131 291.600,161.200 291.150,161.200 290.600 C 161.200 290.050,161.045 289.600,160.855 289.600 C 160.666 289.600,160.597 290.050,160.702 290.600 M238.800 290.800 C 238.800 291.460,238.870 292.000,238.955 292.000 C 239.040 292.000,239.188 291.460,239.285 290.800 C 239.382 290.140,239.313 289.600,239.131 289.600 C 238.949 289.600,238.800 290.140,238.800 290.800 M328.300 291.733 C 328.135 292.136,328.000 296.396,328.000 301.199 C 328.000 307.820,327.879 309.979,327.500 310.120 C 327.164 310.245,327.236 310.404,327.717 310.603 C 328.826 311.060,328.821 311.109,328.707 300.759 C 328.648 295.392,328.465 291.330,328.300 291.733 M161.292 301.900 C 161.207 310.083,161.383 311.723,162.200 310.400 C 162.336 310.180,162.260 310.000,162.032 310.000 C 161.761 310.000,161.575 307.039,161.500 301.500 L 161.383 293.000 161.292 301.900 M37.800 301.066 C 32.917 303.646,32.613 309.517,37.205 312.556 C 38.073 313.130,38.952 313.600,39.158 313.600 C 39.364 313.600,39.593 313.735,39.667 313.900 C 39.795 314.189,42.434 315.718,44.297 316.583 C 44.790 316.813,45.195 317.135,45.197 317.300 C 45.199 317.465,45.383 317.600,45.607 317.600 C 45.831 317.600,47.145 318.287,48.527 319.126 C 49.909 319.966,51.359 320.775,51.749 320.925 C 52.715 321.296,50.525 323.166,48.300 323.871 C 47.915 323.993,47.600 324.263,47.600 324.470 C 47.600 324.846,50.850 323.166,52.444 321.965 C 53.406 321.241,53.223 321.105,45.600 316.892 C 34.462 310.735,32.469 308.233,35.301 303.959 C 38.158 299.646,40.246 299.944,50.990 306.199 C 55.336 308.730,59.007 310.796,59.146 310.791 C 59.616 310.775,57.406 309.218,56.900 309.209 C 56.625 309.204,56.400 309.054,56.400 308.875 C 56.400 308.696,55.770 308.302,55.000 308.000 C 54.230 307.698,53.600 307.325,53.600 307.172 C 53.600 307.019,53.285 306.790,52.900 306.664 C 52.515 306.538,51.390 305.952,50.400 305.361 C 41.761 300.206,40.343 299.722,37.800 301.066 M87.000 301.555 C 85.900 302.157,84.280 303.072,83.400 303.587 C 82.520 304.102,81.125 304.889,80.300 305.336 C 79.475 305.783,78.800 306.316,78.800 306.520 C 78.800 306.725,79.205 306.632,79.700 306.314 C 81.745 305.001,88.666 301.258,89.506 301.010 C 92.448 300.141,96.400 303.614,96.400 307.067 C 96.400 307.862,96.520 308.040,96.840 307.720 C 97.928 306.632,95.646 302.600,93.204 301.296 C 91.032 300.137,89.469 300.202,87.000 301.555 M127.254 301.246 C 125.266 302.412,124.000 304.059,124.000 305.479 C 124.000 305.859,124.405 305.366,124.900 304.385 C 127.399 299.428,130.203 299.840,141.900 306.883 C 142.615 307.313,143.200 307.515,143.200 307.332 C 143.200 307.149,142.345 306.553,141.300 306.009 C 140.255 305.465,139.310 304.925,139.200 304.810 C 139.090 304.694,138.640 304.403,138.200 304.162 C 136.204 303.071,135.385 302.584,135.200 302.378 C 133.660 300.666,129.302 300.045,127.254 301.246 M176.998 301.342 C 176.117 301.814,174.677 302.650,173.798 303.199 C 171.025 304.934,169.821 305.615,169.100 305.858 C 168.715 305.987,168.400 306.269,168.400 306.485 C 168.400 306.851,168.997 306.546,173.600 303.830 C 180.924 299.507,185.994 300.765,185.999 306.906 C 186.001 310.572,185.966 310.600,170.031 319.768 C 167.350 321.310,167.215 321.668,168.993 322.516 C 169.767 322.885,170.400 323.010,170.400 322.794 C 170.400 322.577,170.152 322.400,169.849 322.400 C 168.048 322.400,168.443 321.251,170.688 319.963 C 171.960 319.233,173.540 318.308,174.200 317.907 C 174.860 317.506,175.715 317.072,176.100 316.942 C 176.485 316.813,176.800 316.569,176.800 316.400 C 176.800 316.231,177.115 315.990,177.500 315.864 C 177.885 315.738,179.100 315.083,180.200 314.409 C 181.300 313.734,182.470 313.068,182.800 312.929 C 183.130 312.790,184.075 311.969,184.900 311.105 C 189.796 305.974,183.311 297.962,176.998 301.342 M217.536 300.938 C 213.145 302.889,212.132 308.858,215.692 311.800 C 216.642 312.585,217.216 312.948,219.800 314.400 C 220.510 314.799,221.520 315.367,222.045 315.662 C 222.570 315.958,223.090 316.290,223.200 316.400 C 223.310 316.510,224.120 316.987,225.000 317.460 C 227.469 318.787,229.281 319.809,230.661 320.653 L 231.921 321.423 230.661 322.219 C 229.967 322.656,228.905 323.266,228.300 323.575 C 227.695 323.883,227.200 324.289,227.200 324.477 C 227.200 324.665,227.605 324.571,228.100 324.268 C 228.595 323.966,229.871 323.225,230.935 322.622 C 233.079 321.407,233.095 321.455,230.000 319.705 C 229.230 319.269,227.862 318.483,226.961 317.957 C 226.059 317.430,223.313 315.858,220.859 314.462 C 214.118 310.629,212.217 307.218,214.891 303.754 C 218.064 299.642,219.509 299.848,230.000 305.904 C 233.630 307.999,236.735 309.789,236.900 309.881 C 237.065 309.972,237.200 309.878,237.200 309.670 C 237.200 309.463,236.885 309.190,236.500 309.064 C 236.115 308.938,234.990 308.352,234.000 307.761 C 232.339 306.770,231.286 306.163,228.755 304.738 C 228.230 304.442,227.710 304.110,227.600 304.000 C 225.256 301.656,219.714 299.970,217.536 300.938 M267.200 301.149 C 266.430 301.544,264.847 302.437,263.682 303.133 C 262.518 303.830,261.408 304.400,261.216 304.400 C 261.024 304.400,260.807 304.535,260.733 304.700 C 260.566 305.076,258.436 306.375,257.500 306.671 C 257.115 306.793,256.800 307.063,256.800 307.270 C 256.800 307.478,256.935 307.569,257.100 307.474 C 257.265 307.380,259.597 306.028,262.283 304.472 C 269.971 300.017,272.725 299.958,275.093 304.200 C 275.585 305.080,275.990 305.573,275.993 305.295 C 276.036 302.001,270.569 299.423,267.200 301.149 M306.800 301.253 C 303.971 302.860,302.918 305.095,303.442 308.375 C 303.717 310.092,305.919 312.800,307.040 312.800 C 307.348 312.800,307.600 312.959,307.600 313.153 C 307.600 313.348,307.915 313.607,308.300 313.729 C 308.985 313.946,311.204 315.204,311.600 315.600 C 311.823 315.823,312.753 316.360,316.000 318.141 C 321.813 321.330,321.954 321.524,319.400 322.799 C 318.740 323.129,318.110 323.489,318.000 323.599 C 317.606 323.995,315.387 325.254,314.700 325.471 C 314.315 325.593,314.000 325.859,314.000 326.061 C 314.000 326.263,314.405 326.212,314.900 325.947 C 316.881 324.888,322.400 321.560,322.400 321.424 C 322.400 321.245,319.868 319.723,315.300 317.157 C 303.009 310.254,301.164 307.658,305.248 303.007 C 308.034 299.834,310.101 300.217,319.131 305.579 C 321.262 306.843,323.633 308.187,324.402 308.563 L 325.800 309.248 324.800 308.433 C 324.250 307.985,323.575 307.614,323.300 307.609 C 323.025 307.604,322.800 307.441,322.800 307.247 C 322.800 307.052,322.485 306.793,322.100 306.671 C 321.413 306.454,319.194 305.195,318.800 304.799 C 318.690 304.689,318.060 304.329,317.400 304.000 C 316.740 303.671,316.110 303.307,316.000 303.191 C 313.914 300.999,309.049 299.974,306.800 301.253 M356.200 301.572 C 355.100 302.178,353.550 303.046,352.755 303.499 C 351.960 303.953,350.880 304.567,350.355 304.862 C 349.830 305.158,349.310 305.490,349.200 305.600 C 348.804 305.996,346.585 307.254,345.900 307.471 C 345.515 307.593,345.200 307.867,345.200 308.079 C 345.200 308.292,345.785 308.113,346.500 307.683 C 359.634 299.774,362.346 299.306,365.038 304.480 C 367.014 308.278,365.397 310.627,357.800 315.000 C 355.600 316.267,353.215 317.640,352.500 318.051 C 351.785 318.463,350.525 319.182,349.700 319.648 C 346.722 321.333,346.655 321.414,347.688 322.087 C 349.524 323.284,351.200 324.011,351.200 323.610 C 351.200 323.385,351.017 323.200,350.794 323.200 C 350.571 323.200,349.781 322.801,349.037 322.314 L 347.686 321.428 350.758 319.614 C 352.447 318.616,354.363 317.530,355.015 317.201 C 355.667 316.871,356.290 316.511,356.400 316.401 C 356.794 316.005,359.013 314.746,359.700 314.529 C 360.085 314.407,360.400 314.148,360.400 313.953 C 360.400 313.759,360.593 313.600,360.828 313.600 C 361.063 313.600,362.040 313.061,362.998 312.401 C 370.107 307.510,363.763 297.404,356.200 301.572 M77.133 307.100 C 76.966 307.476,74.836 308.775,73.900 309.071 C 73.515 309.193,73.200 309.469,73.200 309.685 C 73.200 310.036,75.726 308.744,77.789 307.338 C 78.441 306.894,78.464 306.800,77.922 306.800 C 77.562 306.800,77.207 306.935,77.133 307.100 M166.500 307.344 C 166.005 307.589,165.600 307.927,165.600 308.095 C 165.600 308.596,166.140 308.429,167.200 307.600 C 168.282 306.754,167.943 306.629,166.500 307.344 M254.900 308.144 C 254.405 308.389,254.000 308.732,254.000 308.905 C 254.000 309.079,254.540 308.941,255.200 308.600 C 255.860 308.259,256.400 307.894,256.400 307.790 C 256.400 307.521,255.939 307.630,254.900 308.144 M124.000 308.543 C 124.000 309.932,126.357 312.798,127.500 312.800 C 127.775 312.800,128.000 312.980,128.000 313.200 C 128.000 313.420,128.172 313.600,128.382 313.600 C 128.593 313.600,129.718 314.165,130.882 314.856 C 132.047 315.547,133.585 316.447,134.300 316.856 C 137.420 318.642,138.297 319.142,139.892 320.043 C 140.822 320.570,141.603 321.180,141.628 321.400 C 141.672 321.803,139.199 323.438,137.900 323.864 C 137.515 323.990,137.200 324.256,137.200 324.454 C 137.200 324.653,138.457 324.137,139.993 323.307 C 143.393 321.472,143.253 321.022,138.600 318.805 C 133.425 316.340,125.746 311.176,124.913 309.602 C 124.411 308.651,124.000 308.175,124.000 308.543 M96.000 309.062 C 96.000 309.426,95.272 310.416,94.383 311.262 C 93.494 312.108,92.936 312.800,93.143 312.800 C 93.833 312.800,96.400 309.931,96.400 309.160 C 96.400 308.742,96.310 308.400,96.200 308.400 C 96.090 308.400,96.000 308.698,96.000 309.062 M163.600 309.200 C 163.050 309.630,162.780 309.982,163.000 309.982 C 163.220 309.982,163.850 309.630,164.400 309.200 C 164.950 308.770,165.220 308.418,165.000 308.418 C 164.780 308.418,164.150 308.770,163.600 309.200 M274.990 309.911 C 274.232 311.316,272.020 312.828,264.800 316.877 C 256.868 321.326,256.988 321.237,257.956 321.965 C 259.550 323.166,262.800 324.846,262.800 324.470 C 262.800 324.263,262.485 323.993,262.100 323.871 C 259.850 323.158,257.686 321.295,258.670 320.918 C 259.072 320.765,260.750 319.820,262.400 318.820 C 264.050 317.819,265.940 316.730,266.600 316.401 C 267.260 316.071,267.890 315.711,268.000 315.601 C 268.394 315.205,270.613 313.946,271.300 313.729 C 271.685 313.607,272.000 313.348,272.000 313.153 C 272.000 312.959,272.225 312.800,272.500 312.800 C 273.209 312.799,274.903 311.199,275.570 309.901 C 276.429 308.228,275.894 308.238,274.990 309.911 M343.600 308.725 C 343.600 308.904,342.970 309.298,342.200 309.600 C 341.430 309.902,340.800 310.296,340.800 310.475 C 340.800 310.943,340.905 310.909,342.950 309.766 C 344.918 308.666,345.161 308.400,344.200 308.400 C 343.870 308.400,343.600 308.546,343.600 308.725 M87.000 315.870 C 84.140 317.537,81.170 319.259,80.400 319.698 C 77.411 321.403,77.403 321.417,78.877 322.295 C 82.432 324.413,84.800 325.627,84.797 325.329 C 84.795 325.148,84.390 324.802,83.897 324.560 C 81.841 323.551,79.371 322.174,78.953 321.804 C 78.422 321.335,78.730 321.132,87.245 316.338 C 87.770 316.042,88.290 315.708,88.400 315.595 C 88.510 315.482,89.455 314.958,90.500 314.432 C 91.545 313.905,92.400 313.323,92.400 313.137 C 92.400 312.689,92.857 312.458,87.000 315.870 M170.800 323.390 C 170.800 323.494,171.385 323.865,172.100 324.214 L 173.400 324.848 172.400 324.033 C 171.437 323.248,170.800 322.992,170.800 323.390 M351.600 324.156 C 351.600 324.279,352.140 324.659,352.800 325.000 C 353.460 325.341,354.000 325.457,354.000 325.257 C 354.000 325.057,353.685 324.782,353.300 324.646 C 352.915 324.511,352.375 324.295,352.100 324.166 C 351.825 324.038,351.600 324.034,351.600 324.156 M46.000 325.102 C 46.000 325.269,45.460 325.644,44.800 325.936 C 44.140 326.228,43.600 326.619,43.600 326.805 C 43.600 326.991,44.410 326.691,45.400 326.138 C 47.319 325.065,47.557 324.800,46.600 324.800 C 46.270 324.800,46.000 324.936,46.000 325.102 M135.300 325.344 C 134.805 325.589,134.400 325.927,134.400 326.095 C 134.400 326.263,134.130 326.400,133.800 326.400 C 133.470 326.400,133.200 326.585,133.200 326.810 C 133.200 327.246,134.824 326.505,136.200 325.443 C 137.114 324.738,136.632 324.684,135.300 325.344 M263.200 324.990 C 263.200 325.094,263.740 325.459,264.400 325.800 C 265.083 326.153,265.600 326.244,265.600 326.010 C 265.600 325.785,265.330 325.600,265.000 325.600 C 264.670 325.600,264.400 325.420,264.400 325.200 C 264.400 324.980,264.130 324.800,263.800 324.800 C 263.470 324.800,263.200 324.885,263.200 324.990 M86.000 326.362 C 87.080 327.248,87.600 327.406,87.600 326.847 C 87.600 326.652,87.285 326.382,86.900 326.246 C 86.515 326.111,85.930 325.896,85.600 325.770 C 85.270 325.644,85.450 325.910,86.000 326.362 M175.020 325.940 C 175.923 326.748,180.000 328.824,180.000 328.476 C 180.000 328.266,179.685 327.993,179.300 327.871 C 178.364 327.575,176.234 326.276,176.067 325.900 C 175.993 325.735,175.642 325.600,175.287 325.600 C 174.900 325.600,174.793 325.737,175.020 325.940 M223.600 326.433 L 222.600 327.248 223.900 326.614 C 224.615 326.265,225.200 325.894,225.200 325.790 C 225.200 325.392,224.563 325.648,223.600 326.433 M354.400 325.790 C 354.400 325.894,354.985 326.265,355.700 326.614 L 357.000 327.248 356.000 326.433 C 355.037 325.648,354.400 325.392,354.400 325.790 M266.000 326.556 C 266.000 326.679,266.540 327.059,267.200 327.400 C 267.860 327.741,268.400 327.857,268.400 327.657 C 268.400 327.457,268.085 327.182,267.700 327.046 C 267.315 326.911,266.775 326.695,266.500 326.566 C 266.225 326.438,266.000 326.434,266.000 326.556 M311.800 327.172 C 311.140 327.565,309.880 328.294,309.000 328.791 C 304.989 331.058,304.207 331.861,303.340 334.600 C 302.662 336.743,304.987 341.562,306.714 341.591 C 306.997 341.596,306.594 341.044,305.819 340.363 C 302.360 337.326,303.340 332.254,307.829 329.974 C 309.857 328.944,313.600 326.731,313.600 326.562 C 313.600 326.255,312.996 326.459,311.800 327.172 M88.000 327.383 C 88.000 327.484,88.855 328.057,89.900 328.657 C 93.629 330.798,95.285 332.110,95.823 333.346 C 96.243 334.312,96.372 334.411,96.384 333.775 C 96.407 332.595,92.282 328.828,90.928 328.791 C 90.748 328.786,90.150 328.430,89.600 328.000 C 88.636 327.246,88.000 327.001,88.000 327.383 M220.800 328.000 C 220.250 328.430,219.980 328.782,220.200 328.782 C 220.420 328.782,221.050 328.430,221.600 328.000 C 222.150 327.570,222.420 327.218,222.200 327.218 C 221.980 327.218,221.350 327.570,220.800 328.000 M358.000 327.962 C 359.080 328.848,359.600 329.006,359.600 328.447 C 359.600 328.252,359.285 327.982,358.900 327.846 C 358.515 327.711,357.930 327.496,357.600 327.370 C 357.270 327.244,357.450 327.510,358.000 327.962 M38.400 329.647 C 34.271 332.178,32.946 335.365,34.624 338.729 C 35.277 340.036,36.987 341.603,37.754 341.596 C 37.999 341.593,37.611 341.127,36.892 340.560 C 33.091 337.565,33.699 333.080,38.289 330.251 C 41.660 328.174,41.840 328.047,41.400 328.051 C 41.180 328.052,39.830 328.771,38.400 329.647 M128.400 329.418 C 125.705 331.076,123.988 333.029,124.034 334.385 L 124.069 335.400 124.376 334.387 C 124.967 332.443,125.819 331.526,128.500 329.951 C 130.993 328.487,131.662 327.951,130.900 328.032 C 130.735 328.049,129.610 328.673,128.400 329.418 M269.600 328.800 C 270.150 329.230,270.739 329.586,270.909 329.591 C 271.908 329.620,274.615 331.990,275.253 333.394 C 275.686 334.347,275.986 334.690,275.991 334.238 C 276.006 332.968,274.116 330.906,271.568 329.413 C 268.913 327.857,268.051 327.588,269.600 328.800 M180.400 328.932 C 180.400 329.052,181.255 329.617,182.300 330.188 C 186.753 332.620,187.398 338.427,183.481 340.816 C 182.776 341.246,182.470 341.592,182.800 341.586 C 185.696 341.532,187.522 335.645,185.613 332.514 C 184.724 331.056,180.400 328.085,180.400 328.932 M216.918 330.205 C 214.211 331.979,213.463 333.429,213.682 336.469 C 213.860 338.929,215.694 341.615,217.178 341.589 C 217.579 341.582,217.436 341.353,216.776 340.943 C 214.369 339.448,213.240 335.826,214.449 333.474 C 215.056 332.292,216.850 330.402,217.375 330.391 C 217.609 330.386,218.250 330.030,218.800 329.600 C 220.430 328.325,219.167 328.731,216.918 330.205 M360.000 328.950 C 360.000 329.042,360.923 329.709,362.051 330.433 C 366.414 333.232,366.869 337.596,363.108 340.560 C 362.387 341.128,362.060 341.593,362.378 341.596 C 363.110 341.601,365.200 339.623,365.200 338.925 C 365.200 338.636,365.380 338.400,365.600 338.400 C 366.174 338.400,366.094 334.157,365.500 333.099 C 364.650 331.585,360.000 328.077,360.000 328.950 M54.800 334.465 C 52.490 335.812,50.240 337.119,49.800 337.372 C 45.303 339.948,44.385 340.518,44.521 340.654 C 44.663 340.796,50.186 337.760,54.200 335.332 C 55.080 334.800,56.115 334.262,56.500 334.136 C 56.885 334.010,57.200 333.748,57.200 333.553 C 57.200 333.359,57.448 333.200,57.751 333.200 C 58.054 333.200,58.526 332.930,58.800 332.600 C 59.525 331.726,59.400 331.784,54.800 334.465 M142.200 335.822 C 138.680 337.885,135.019 339.979,134.065 340.475 C 133.111 340.971,132.497 341.432,132.701 341.500 C 133.021 341.607,144.306 335.391,145.400 334.504 C 145.620 334.326,146.430 333.879,147.200 333.510 L 148.600 332.840 148.800 342.720 C 148.940 349.619,149.152 352.867,149.505 353.484 C 150.129 354.575,152.477 356.403,153.238 356.391 C 153.547 356.386,153.145 356.002,152.343 355.537 C 149.397 353.828,149.200 352.971,149.200 341.846 C 149.200 336.430,149.065 332.016,148.900 332.035 C 148.735 332.054,145.720 333.758,142.200 335.822 M161.291 340.900 L 161.383 349.800 161.500 341.500 C 161.621 332.872,161.822 332.039,163.420 333.562 C 163.629 333.762,164.430 334.280,165.200 334.713 C 165.970 335.147,167.770 336.181,169.200 337.011 C 174.473 340.072,177.329 341.604,177.481 341.452 C 177.613 341.320,176.105 340.385,172.200 338.178 C 171.315 337.677,170.266 337.070,165.068 334.051 C 163.126 332.923,161.461 332.000,161.368 332.000 C 161.276 332.000,161.241 336.005,161.291 340.900 M236.339 333.305 C 235.096 334.017,231.443 336.108,228.223 337.950 C 225.002 339.793,222.437 341.370,222.521 341.454 C 222.668 341.601,225.189 340.253,230.738 337.060 C 232.135 336.257,233.362 335.600,233.466 335.600 C 233.571 335.600,234.441 335.060,235.400 334.400 C 236.359 333.740,237.517 333.200,237.972 333.200 C 238.441 333.200,238.800 332.940,238.800 332.600 C 238.800 331.842,238.985 331.789,236.339 333.305 M251.035 332.298 C 250.906 332.427,250.800 336.815,250.800 342.048 C 250.800 353.248,250.703 353.652,247.558 355.569 C 246.653 356.121,246.437 356.398,246.911 356.399 C 247.301 356.399,248.426 355.595,249.411 354.611 L 251.200 352.821 251.200 342.583 L 251.200 332.346 252.362 333.173 C 253.001 333.628,253.648 334.000,253.800 334.000 C 253.952 334.000,254.554 334.337,255.138 334.749 C 255.722 335.162,257.100 335.981,258.200 336.571 C 259.300 337.161,260.470 337.806,260.800 338.006 C 264.548 340.273,266.964 341.600,267.341 341.600 C 267.593 341.600,266.287 340.700,264.439 339.600 C 262.590 338.500,261.012 337.600,260.931 337.600 C 260.851 337.600,259.600 336.880,258.152 336.000 C 256.703 335.120,255.455 334.400,255.377 334.400 C 255.299 334.400,254.343 333.874,253.253 333.231 C 252.163 332.588,251.165 332.168,251.035 332.298 M341.149 332.529 C 341.451 332.898,341.946 333.200,342.249 333.200 C 342.552 333.200,342.800 333.359,342.800 333.553 C 342.800 333.748,343.115 334.013,343.500 334.142 C 344.192 334.375,345.848 335.297,347.664 336.460 C 348.729 337.142,350.000 337.657,350.000 337.407 C 350.000 337.226,346.379 335.046,342.800 333.072 C 341.456 332.331,340.814 332.119,341.149 332.529 M71.200 342.341 C 71.200 353.526,71.043 354.179,67.986 355.681 C 67.224 356.055,66.834 356.370,67.120 356.381 C 70.837 356.518,71.779 353.793,71.926 342.489 L 72.052 332.778 74.126 333.886 C 75.267 334.495,76.290 335.101,76.400 335.231 C 76.510 335.362,77.590 336.007,78.801 336.666 C 80.012 337.325,82.496 338.726,84.321 339.779 C 86.147 340.832,87.732 341.601,87.845 341.488 C 87.958 341.376,87.544 341.024,86.925 340.707 C 86.306 340.390,85.170 339.764,84.400 339.315 C 75.800 334.305,72.332 332.400,71.816 332.400 C 71.278 332.400,71.200 333.659,71.200 342.341 M325.914 333.400 C 325.105 333.950,324.340 334.400,324.214 334.400 C 324.088 334.400,322.800 335.120,321.352 336.000 C 319.903 336.880,318.629 337.600,318.521 337.600 C 318.412 337.600,317.846 337.937,317.262 338.349 C 316.678 338.762,315.248 339.594,314.084 340.200 C 312.920 340.805,312.052 341.385,312.154 341.488 C 312.349 341.682,313.882 340.868,320.600 337.007 C 322.800 335.743,325.365 334.273,326.300 333.741 L 328.000 332.774 328.006 341.887 C 328.010 347.080,328.179 351.258,328.400 351.600 C 328.656 351.996,328.790 348.840,328.794 342.300 C 328.801 331.168,328.873 331.390,325.914 333.400 M96.412 335.713 C 96.394 337.415,95.446 339.322,94.024 340.519 C 93.317 341.113,92.938 341.600,93.183 341.600 C 93.864 341.600,96.400 338.910,96.400 338.187 C 96.400 337.835,96.588 337.197,96.817 336.768 C 97.100 336.240,97.104 335.766,96.829 335.295 C 96.486 334.706,96.422 334.769,96.412 335.713 M124.028 337.476 C 124.013 337.958,124.180 338.464,124.400 338.600 C 124.873 338.892,124.873 338.501,124.400 337.400 C 124.069 336.629,124.055 336.631,124.028 337.476 M275.479 337.757 C 275.315 338.174,275.275 338.609,275.391 338.724 C 275.755 339.089,276.076 338.491,275.924 337.731 C 275.783 337.035,275.762 337.036,275.479 337.757 M350.400 337.781 C 350.400 338.011,355.149 340.803,355.521 340.791 C 355.939 340.778,353.863 339.221,353.400 339.200 C 353.180 339.190,352.550 338.830,352.000 338.400 C 351.038 337.648,350.400 337.401,350.400 337.781 M124.800 339.384 C 124.800 339.806,126.888 341.599,127.380 341.600 C 127.620 341.600,127.620 341.487,127.380 341.294 C 127.171 341.126,126.505 340.554,125.900 340.024 C 125.295 339.494,124.800 339.206,124.800 339.384 M273.615 340.439 C 272.853 341.078,272.403 341.600,272.615 341.600 C 273.096 341.599,275.389 339.654,275.165 339.437 C 275.074 339.350,274.377 339.800,273.615 340.439 M38.600 342.000 C 38.736 342.220,39.546 342.400,40.400 342.400 C 41.254 342.400,42.064 342.220,42.200 342.000 C 42.353 341.753,41.663 341.600,40.400 341.600 C 39.137 341.600,38.447 341.753,38.600 342.000 M89.000 342.000 C 89.136 342.220,89.856 342.400,90.600 342.400 C 91.344 342.400,92.064 342.220,92.200 342.000 C 92.351 341.755,91.730 341.600,90.600 341.600 C 89.470 341.600,88.849 341.755,89.000 342.000 M128.600 342.000 C 128.736 342.220,129.456 342.400,130.200 342.400 C 130.944 342.400,131.664 342.220,131.800 342.000 C 131.951 341.755,131.330 341.600,130.200 341.600 C 129.070 341.600,128.449 341.755,128.600 342.000 M178.600 342.000 C 178.736 342.220,179.456 342.400,180.200 342.400 C 180.944 342.400,181.664 342.220,181.800 342.000 C 181.951 341.755,181.330 341.600,180.200 341.600 C 179.070 341.600,178.449 341.755,178.600 342.000 M218.200 342.000 C 218.336 342.220,219.056 342.400,219.800 342.400 C 220.544 342.400,221.264 342.220,221.400 342.000 C 221.551 341.755,220.930 341.600,219.800 341.600 C 218.670 341.600,218.049 341.755,218.200 342.000 M268.200 342.000 C 268.336 342.220,269.056 342.400,269.800 342.400 C 270.544 342.400,271.264 342.220,271.400 342.000 C 271.551 341.755,270.930 341.600,269.800 341.600 C 268.670 341.600,268.049 341.755,268.200 342.000 M307.800 342.000 C 307.936 342.220,308.757 342.400,309.624 342.400 C 310.491 342.400,311.200 342.220,311.200 342.000 C 311.200 341.780,310.379 341.600,309.376 341.600 C 308.263 341.600,307.649 341.756,307.800 342.000 M358.200 342.000 C 358.336 342.220,359.056 342.400,359.800 342.400 C 360.544 342.400,361.264 342.220,361.400 342.000 C 361.551 341.755,360.930 341.600,359.800 341.600 C 358.670 341.600,358.049 341.755,358.200 342.000 M59.227 351.493 C 59.195 353.012,62.137 356.422,63.431 356.367 C 63.998 356.343,63.884 356.196,62.997 355.806 C 61.344 355.079,60.432 353.975,59.794 351.932 C 59.268 350.247,59.253 350.235,59.227 351.493 M238.841 351.900 C 238.795 353.358,241.406 356.401,242.700 356.399 C 243.188 356.397,243.036 356.172,242.200 355.656 C 240.492 354.601,239.553 353.433,239.194 351.916 L 238.882 350.600 238.841 351.900 M340.290 352.035 C 339.894 353.538,338.504 355.150,337.059 355.783 C 336.124 356.193,336.006 356.339,336.600 356.353 C 338.111 356.387,341.006 353.091,340.706 351.676 C 340.604 351.195,340.485 351.298,340.290 352.035 M160.800 352.146 C 160.800 352.952,159.249 354.782,157.835 355.644 C 156.991 356.158,156.822 356.397,157.300 356.399 C 158.260 356.401,161.200 353.386,161.200 352.400 C 161.200 351.960,161.110 351.600,161.000 351.600 C 160.890 351.600,160.800 351.846,160.800 352.146 M328.812 352.841 C 328.788 354.123,332.340 356.993,333.060 356.273 C 333.170 356.163,332.855 355.944,332.359 355.787 C 331.335 355.462,329.913 354.182,329.264 353.000 C 328.924 352.381,328.822 352.345,328.812 352.841 M387.443 361.433 C 387.309 361.781,387.200 362.490,387.200 363.009 C 387.200 363.528,387.020 364.064,386.800 364.200 C 386.580 364.336,386.400 364.777,386.400 365.180 C 386.400 366.949,380.883 371.600,378.786 371.600 C 378.380 371.600,377.936 371.780,377.800 372.000 C 377.078 373.168,381.278 371.442,383.541 369.641 C 385.385 368.172,387.449 364.712,387.800 362.500 C 388.072 360.790,387.894 360.258,387.443 361.433 M90.400 372.700 C 90.400 372.968,228.604 372.967,336.600 372.698 C 359.040 372.642,312.825 372.552,233.900 372.498 C 154.975 372.444,90.400 372.535,90.400 372.700 M88.742 373.726 C 87.776 374.461,86.395 377.087,86.434 378.112 C 86.466 378.930,86.493 378.919,86.779 377.977 C 87.311 376.223,88.035 375.034,89.138 374.102 C 90.241 373.169,89.899 372.845,88.742 373.726 " stroke="none" fill="#80d1ad" fill-rule="evenodd"></path><path id="path4" d="M190.800 27.663 C 183.775 28.837,176.264 30.789,172.600 32.393 C 152.255 41.299,139.133 54.545,130.785 74.600 C 128.335 80.489,126.599 88.525,125.991 96.800 C 125.583 102.352,125.460 134.370,125.843 135.367 C 126.057 135.926,127.614 136.000,139.243 136.000 L 152.400 136.000 152.400 118.264 C 152.400 88.593,154.601 80.513,165.878 68.776 C 194.223 39.274,242.619 56.309,247.197 97.400 C 247.417 99.380,247.598 108.877,247.599 118.505 L 247.600 136.011 260.900 135.905 L 274.200 135.800 274.309 116.800 C 274.452 91.753,273.738 85.782,269.213 74.200 C 260.041 50.723,238.182 32.659,213.800 28.406 C 212.260 28.138,210.136 27.757,209.080 27.559 C 206.643 27.103,193.709 27.177,190.800 27.663 M108.029 149.891 C 107.353 150.711,106.801 151.656,106.802 151.991 C 106.804 152.326,107.086 152.060,107.429 151.400 C 107.772 150.740,108.433 149.795,108.896 149.300 C 109.360 148.805,109.631 148.400,109.499 148.400 C 109.367 148.400,108.705 149.071,108.029 149.891 M293.600 169.376 C 293.600 169.913,293.747 170.444,293.928 170.555 C 294.108 170.667,294.177 170.227,294.082 169.579 C 293.872 168.149,293.600 168.035,293.600 169.376 M198.300 181.893 C 199.235 181.977,200.765 181.977,201.700 181.893 C 202.635 181.809,201.870 181.740,200.000 181.740 C 198.130 181.740,197.365 181.809,198.300 181.893 M193.200 182.406 C 192.778 182.682,193.015 182.723,194.000 182.542 C 195.725 182.225,196.051 181.998,194.767 182.006 C 194.235 182.009,193.530 182.189,193.200 182.406 M204.433 182.143 C 204.525 182.221,205.230 182.401,206.000 182.542 C 206.985 182.723,207.222 182.682,206.800 182.406 C 206.258 182.050,204.037 181.803,204.433 182.143 M184.944 185.969 C 184.253 186.390,183.557 186.946,183.398 187.204 C 183.239 187.461,183.849 187.182,184.754 186.583 C 186.179 185.640,186.676 185.196,186.300 185.201 C 186.245 185.202,185.635 185.548,184.944 185.969 M213.610 185.326 C 214.209 185.974,216.895 187.597,216.418 187.022 C 216.110 186.651,215.305 186.066,214.629 185.723 C 213.953 185.379,213.495 185.201,213.610 185.326 M181.375 188.900 L 180.200 190.200 181.500 189.025 C 182.215 188.379,182.800 187.794,182.800 187.725 C 182.800 187.416,182.470 187.688,181.375 188.900 M219.582 190.200 C 223.005 193.931,223.062 193.986,222.071 192.600 C 220.872 190.924,220.390 190.398,218.590 188.800 C 217.717 188.025,218.160 188.649,219.582 190.200 M298.800 189.600 C 297.976 189.864,297.941 189.926,298.600 189.954 C 299.040 189.973,299.670 189.813,300.000 189.600 C 300.701 189.147,300.214 189.147,298.800 189.600 M295.138 191.617 C 293.951 192.865,293.615 193.527,293.664 194.517 L 293.728 195.800 293.891 194.473 C 293.999 193.599,294.593 192.607,295.627 191.573 C 296.492 190.708,297.082 190.000,296.938 190.000 C 296.794 190.000,295.984 190.728,295.138 191.617 M178.951 191.300 C 177.770 192.648,177.080 193.600,177.284 193.600 C 177.384 193.600,178.045 192.880,178.752 192.000 C 180.125 190.292,180.264 189.801,178.951 191.300 M196.818 193.616 C 189.589 195.118,184.283 201.607,184.239 209.000 C 184.216 212.819,184.394 213.485,186.728 218.315 C 188.337 221.646,188.451 222.980,187.689 229.600 C 186.542 239.561,186.381 240.968,186.031 244.100 C 185.828 245.915,185.535 248.345,185.379 249.500 L 185.097 251.600 200.004 251.600 L 214.910 251.600 214.630 249.300 C 214.476 248.035,214.181 245.515,213.975 243.700 C 213.769 241.885,213.419 238.825,213.199 236.900 C 211.626 223.185,211.656 221.373,213.517 217.764 C 215.740 213.453,215.801 213.223,215.772 209.239 C 215.699 199.056,206.627 191.578,196.818 193.616 M176.553 194.500 C 175.176 196.836,175.086 197.035,175.787 196.200 C 176.600 195.232,177.300 194.000,177.038 194.000 C 176.933 194.000,176.715 194.225,176.553 194.500 M224.091 196.266 C 224.811 197.622,225.458 198.675,225.528 198.605 C 225.704 198.429,224.205 195.578,223.422 194.600 C 223.070 194.160,223.371 194.910,224.091 196.266 M226.468 201.800 C 226.462 202.240,226.611 202.960,226.800 203.400 C 227.238 204.419,227.238 203.368,226.800 202.000 C 226.543 201.196,226.477 201.157,226.468 201.800 M173.029 202.629 C 172.881 203.215,172.838 203.772,172.932 203.866 C 173.027 203.960,173.224 203.558,173.371 202.971 C 173.519 202.385,173.562 201.828,173.468 201.734 C 173.373 201.640,173.176 202.042,173.029 202.629 M227.350 209.400 C 227.351 211.820,227.416 212.758,227.496 211.485 C 227.576 210.212,227.575 208.232,227.494 207.085 C 227.414 205.938,227.349 206.980,227.350 209.400 M172.546 209.400 C 172.547 211.600,172.614 212.449,172.695 211.287 C 172.776 210.124,172.776 208.324,172.693 207.287 C 172.611 206.249,172.545 207.200,172.546 209.400 M173.044 215.800 C 173.373 217.271,173.602 217.590,173.594 216.567 C 173.591 216.145,173.405 215.530,173.182 215.200 C 172.885 214.762,172.848 214.924,173.044 215.800 M226.649 215.415 C 226.512 215.773,226.415 216.366,226.434 216.733 C 226.453 217.100,226.627 216.869,226.821 216.220 C 227.198 214.958,227.065 214.333,226.649 215.415 M176.158 225.943 C 176.128 227.833,176.201 228.253,176.411 227.400 C 176.816 225.751,176.863 223.685,176.500 223.467 C 176.335 223.368,176.181 224.482,176.158 225.943 M223.356 223.771 C 223.235 224.085,223.204 224.760,223.286 225.271 C 223.395 225.954,223.488 225.804,223.637 224.700 C 223.847 223.147,223.736 222.781,223.356 223.771 M224.120 230.800 C 224.120 232.010,224.195 232.505,224.287 231.900 C 224.378 231.295,224.378 230.305,224.287 229.700 C 224.195 229.095,224.120 229.590,224.120 230.800 M175.663 230.800 C 175.623 231.570,175.506 232.920,175.402 233.800 L 175.212 235.400 175.623 233.800 C 175.848 232.920,175.966 231.570,175.884 230.800 L 175.734 229.400 175.663 230.800 M174.865 237.800 C 174.825 238.680,174.706 240.120,174.602 241.000 L 174.412 242.600 174.823 241.000 C 175.048 240.120,175.167 238.680,175.086 237.800 L 174.940 236.200 174.865 237.800 M224.847 238.233 C 224.873 239.315,225.035 240.740,225.206 241.400 C 225.388 242.103,225.428 241.358,225.303 239.600 C 225.057 236.159,224.777 235.318,224.847 238.233 M225.647 245.233 C 225.673 246.205,225.837 247.540,226.011 248.200 C 226.202 248.928,226.241 248.298,226.109 246.600 C 225.861 243.421,225.576 242.576,225.647 245.233 M173.866 246.768 C 173.719 248.178,173.674 249.407,173.766 249.500 C 174.014 249.747,174.515 245.346,174.310 244.730 C 174.213 244.440,174.014 245.357,173.866 246.768 M226.528 251.000 C 226.614 251.832,292.435 252.524,293.258 251.702 C 293.424 251.536,278.553 251.447,260.210 251.505 C 228.661 251.603,226.849 251.571,226.653 250.905 C 226.490 250.349,226.463 250.370,226.528 251.000 M140.200 251.600 L 107.000 251.807 140.076 251.903 C 161.801 251.967,173.238 251.863,173.400 251.600 C 173.536 251.380,173.592 251.243,173.524 251.297 C 173.456 251.350,158.460 251.486,140.200 251.600 M19.400 264.396 C 16.519 265.807,15.336 266.815,13.762 269.200 C 11.503 272.624,11.600 270.431,11.600 318.317 L 11.600 362.777 12.565 364.960 C 13.849 367.862,16.251 370.393,19.084 371.827 L 21.400 373.000 44.439 373.200 C 68.510 373.409,67.651 373.347,69.435 375.008 C 70.142 375.667,70.800 377.085,70.800 377.950 C 70.800 378.392,70.947 378.844,71.128 378.955 C 71.831 379.390,71.051 376.529,70.132 375.300 C 68.300 372.852,69.041 372.928,44.525 372.687 L 22.049 372.467 19.626 371.379 C 16.842 370.130,14.355 367.663,13.064 364.870 L 12.200 363.000 12.200 318.200 L 12.200 273.400 13.245 271.200 C 14.575 268.402,16.802 266.175,19.600 264.845 L 21.800 263.800 200.200 263.800 L 378.600 263.800 380.449 264.655 C 382.924 265.799,385.448 268.142,386.611 270.373 C 387.134 271.378,387.571 271.916,387.581 271.569 C 387.642 269.504,383.286 265.201,379.870 263.952 C 377.866 263.220,373.080 263.200,199.806 263.210 L 21.800 263.220 19.400 264.396 M387.873 274.487 C 388.187 277.263,388.400 277.427,388.400 274.890 C 388.400 273.767,388.228 272.741,388.017 272.611 C 387.781 272.465,387.726 273.183,387.873 274.487 M62.168 287.554 C 59.678 289.073,59.414 290.306,59.274 301.100 C 59.205 306.435,59.091 310.800,59.021 310.800 C 58.950 310.800,55.336 308.730,50.990 306.199 C 40.246 299.944,38.158 299.646,35.301 303.959 C 32.469 308.233,34.462 310.735,45.600 316.892 C 47.865 318.144,49.768 319.234,51.750 320.415 C 53.634 321.537,54.039 321.166,45.800 325.865 C 35.422 331.784,34.400 332.693,34.400 336.004 C 34.400 341.833,41.349 343.320,47.400 338.785 C 47.620 338.620,48.430 338.129,49.200 337.693 C 49.970 337.257,52.490 335.806,54.800 334.470 L 59.000 332.039 59.212 341.720 C 59.485 354.145,60.491 356.473,65.549 356.381 C 70.381 356.292,71.200 354.257,71.200 342.341 C 71.200 330.569,70.515 331.294,77.716 335.450 C 80.622 337.127,83.585 338.837,84.300 339.250 C 88.194 341.497,88.473 341.600,90.659 341.600 C 92.722 341.600,93.014 341.480,94.447 340.047 C 95.849 338.645,96.599 337.182,95.600 337.800 C 95.380 337.936,95.200 338.297,95.200 338.603 C 95.200 339.728,92.635 341.200,90.676 341.200 C 88.641 341.200,88.701 341.229,78.467 335.315 C 74.874 333.238,71.679 331.638,71.367 331.757 C 70.898 331.937,70.800 333.729,70.800 342.096 L 70.800 352.218 69.653 353.609 C 67.338 356.418,63.841 356.547,61.320 353.917 L 60.200 352.749 60.095 343.075 C 59.986 333.055,59.869 331.600,59.172 331.600 C 58.945 331.600,55.933 333.246,52.480 335.257 C 42.513 341.060,42.229 341.200,40.412 341.200 C 32.954 341.200,33.337 331.889,40.900 329.342 C 41.285 329.213,41.600 328.948,41.600 328.753 C 41.600 328.559,41.783 328.400,42.007 328.400 C 42.231 328.400,43.538 327.725,44.912 326.900 C 46.286 326.075,47.948 325.130,48.605 324.801 C 49.262 324.471,49.890 324.111,50.000 324.000 C 50.110 323.889,50.650 323.564,51.200 323.277 C 53.837 321.901,53.939 321.658,52.415 320.370 C 51.653 319.727,50.912 319.200,50.767 319.200 C 50.622 319.200,48.491 318.030,46.030 316.600 C 43.570 315.170,41.387 314.000,41.178 314.000 C 40.970 314.000,40.800 313.820,40.800 313.600 C 40.800 313.380,40.609 313.200,40.376 313.200 C 39.097 313.200,35.957 310.515,35.337 308.891 C 33.148 303.158,39.195 299.764,45.200 303.355 C 47.659 304.825,48.444 305.282,51.800 307.200 C 52.570 307.640,53.875 308.388,54.700 308.862 C 58.178 310.859,59.207 311.327,59.495 311.039 C 59.663 310.872,59.890 306.084,60.000 300.399 L 60.200 290.063 61.200 288.994 C 61.750 288.407,62.740 287.687,63.400 287.396 C 64.060 287.104,64.330 286.851,64.000 286.834 C 63.670 286.817,62.846 287.141,62.168 287.554 M67.000 287.284 C 70.394 288.474,70.571 289.100,70.800 300.795 C 70.988 310.369,71.046 310.999,71.752 311.134 C 72.166 311.214,72.616 311.126,72.752 310.939 C 72.888 310.753,73.430 310.358,73.955 310.062 C 75.425 309.235,77.456 308.082,79.000 307.200 C 79.770 306.760,81.030 306.040,81.800 305.600 C 82.570 305.160,83.875 304.408,84.700 303.928 C 88.878 301.498,90.331 301.130,92.474 301.958 C 93.645 302.410,95.200 303.760,95.200 304.323 C 95.200 304.560,95.380 304.864,95.600 305.000 C 96.422 305.508,95.959 304.381,94.806 303.067 C 91.839 299.689,90.612 299.964,79.256 306.544 C 75.217 308.885,71.752 310.800,71.556 310.800 C 71.357 310.800,71.199 306.338,71.199 300.700 C 71.197 288.862,70.453 286.659,66.520 286.832 C 66.085 286.851,66.276 287.030,67.000 287.284 M151.616 287.848 C 149.273 289.819,149.200 290.217,149.200 301.023 C 149.200 309.396,149.114 310.853,148.630 310.667 C 148.316 310.546,144.630 308.465,140.437 306.042 C 131.186 300.695,130.484 300.444,127.904 301.553 C 124.536 303.001,123.248 306.348,124.855 309.471 C 125.837 311.379,131.614 315.176,141.295 320.277 C 141.898 320.594,142.567 321.157,142.783 321.527 C 143.119 322.102,143.177 322.109,143.188 321.576 C 143.199 321.027,140.716 319.365,135.600 316.497 C 134.830 316.065,133.247 315.147,132.082 314.456 C 130.918 313.765,129.793 313.200,129.582 313.200 C 129.372 313.200,129.200 313.020,129.200 312.800 C 129.200 312.580,128.971 312.400,128.691 312.400 C 126.450 312.400,123.884 307.855,124.809 305.521 C 126.759 300.596,129.763 300.408,137.300 304.738 C 138.807 305.604,140.670 306.663,142.445 307.662 C 142.970 307.958,143.490 308.290,143.600 308.400 C 143.710 308.510,144.230 308.842,144.755 309.138 C 149.998 312.090,149.600 312.703,149.600 301.663 C 149.600 289.839,149.950 288.515,153.400 287.289 C 154.382 286.941,154.442 286.857,153.731 286.832 C 153.253 286.814,152.301 287.271,151.616 287.848 M156.400 287.200 C 157.188 287.709,158.115 287.709,157.800 287.200 C 157.664 286.980,157.158 286.803,156.676 286.806 C 155.964 286.811,155.912 286.885,156.400 287.200 M242.200 287.200 C 241.885 287.709,242.812 287.709,243.600 287.200 C 244.088 286.885,244.036 286.811,243.324 286.806 C 242.842 286.803,242.336 286.980,242.200 287.200 M246.600 287.284 C 250.106 288.513,250.400 289.589,250.400 301.200 C 250.400 312.060,250.357 311.923,253.248 310.205 C 254.212 309.633,255.315 309.062,255.700 308.936 C 256.085 308.810,256.400 308.548,256.400 308.353 C 256.400 308.159,256.572 308.000,256.782 308.000 C 256.993 308.000,258.118 307.433,259.282 306.740 C 268.868 301.034,270.970 300.480,273.573 302.974 C 276.953 306.213,275.727 310.235,270.497 313.065 C 268.746 314.012,258.900 319.681,257.653 320.460 C 257.184 320.753,256.800 321.183,256.800 321.416 C 256.800 321.855,262.108 325.200,262.805 325.200 C 263.022 325.200,263.200 325.359,263.200 325.553 C 263.200 325.748,263.515 326.010,263.900 326.136 C 264.285 326.262,265.500 326.911,266.600 327.578 C 267.700 328.246,269.140 329.070,269.800 329.410 C 276.019 332.611,277.314 336.937,273.031 340.203 C 271.674 341.238,268.208 341.627,267.380 340.838 C 267.171 340.638,266.325 340.098,265.500 339.638 C 263.533 338.539,262.366 337.871,256.430 334.440 C 249.905 330.670,250.400 330.081,250.400 341.600 C 250.400 353.297,250.166 354.131,246.479 355.591 C 244.025 356.563,240.519 354.773,239.800 352.182 C 239.543 351.254,239.434 351.162,239.297 351.752 C 238.602 354.731,244.479 357.446,247.558 355.569 C 250.703 353.652,250.800 353.248,250.800 342.048 C 250.800 331.168,250.653 331.698,253.253 333.231 C 254.343 333.874,255.299 334.400,255.377 334.400 C 255.455 334.400,256.703 335.120,258.152 336.000 C 259.600 336.880,260.851 337.600,260.931 337.600 C 261.012 337.600,262.590 338.500,264.439 339.600 C 268.693 342.131,271.289 342.366,273.634 340.432 C 277.417 337.314,276.385 332.471,271.359 329.758 C 268.401 328.161,257.799 321.957,257.475 321.634 C 257.125 321.285,258.285 320.532,264.800 316.877 C 275.955 310.621,277.569 308.633,275.093 304.200 C 272.528 299.606,270.239 299.876,259.611 306.025 C 255.433 308.442,251.741 310.524,251.407 310.653 C 250.874 310.857,250.800 309.677,250.800 301.023 C 250.800 290.217,250.727 289.819,248.384 287.848 C 247.699 287.271,246.747 286.814,246.269 286.832 C 245.560 286.857,245.621 286.941,246.600 287.284 M331.285 287.655 C 328.899 289.184,328.800 289.704,328.800 300.780 C 328.800 306.718,328.648 310.800,328.427 310.800 C 328.221 310.800,327.186 310.280,326.127 309.645 C 312.688 301.591,310.494 300.558,308.198 301.201 C 306.279 301.738,303.993 303.874,304.009 305.114 C 304.015 305.523,304.367 305.199,304.881 304.311 C 306.704 301.167,310.100 300.842,314.437 303.398 C 316.880 304.838,317.806 305.375,321.000 307.200 C 321.770 307.640,323.030 308.360,323.800 308.800 C 329.700 312.171,329.200 312.894,329.200 300.993 C 329.200 289.428,329.449 288.528,333.000 287.284 C 333.861 286.982,333.974 286.856,333.400 286.838 C 332.960 286.825,332.008 287.192,331.285 287.655 M336.600 287.396 C 339.922 288.864,340.400 290.720,340.400 302.146 C 340.400 312.310,340.265 311.948,343.336 310.000 C 344.376 309.340,345.304 308.800,345.396 308.800 C 345.489 308.800,346.518 308.235,347.682 307.544 C 348.847 306.853,350.385 305.953,351.100 305.544 C 351.815 305.135,353.075 304.410,353.900 303.932 C 356.938 302.175,358.395 301.600,359.807 301.600 C 363.599 301.600,366.116 305.434,364.641 308.963 C 363.751 311.094,363.746 311.098,358.500 314.042 C 347.262 320.348,345.758 321.378,346.819 322.040 C 348.247 322.932,352.659 325.480,357.245 328.062 C 357.770 328.358,358.290 328.690,358.400 328.800 C 358.510 328.910,359.410 329.431,360.400 329.958 C 366.811 333.370,366.514 341.200,359.974 341.200 C 357.995 341.200,357.308 340.905,351.800 337.691 C 350.480 336.921,348.770 335.935,348.000 335.500 C 347.230 335.066,345.399 334.010,343.930 333.155 C 342.462 332.300,341.067 331.600,340.830 331.600 C 340.536 331.600,340.400 334.379,340.400 340.369 C 340.400 352.444,339.860 354.326,336.035 355.588 C 334.313 356.157,332.615 355.764,331.063 354.439 C 329.516 353.117,329.403 352.366,329.200 342.033 C 329.076 335.738,328.846 331.815,328.597 331.732 C 328.375 331.658,325.315 333.240,321.797 335.247 C 310.899 341.464,311.455 341.200,309.272 341.200 C 307.389 341.200,307.169 341.088,305.634 339.344 C 304.735 338.323,304.000 337.714,304.000 337.991 C 304.000 338.268,304.699 339.193,305.553 340.047 C 308.155 342.649,311.841 342.112,317.262 338.339 C 317.846 337.933,318.412 337.600,318.521 337.600 C 318.629 337.600,319.903 336.880,321.352 336.000 C 322.800 335.120,324.088 334.400,324.214 334.400 C 324.340 334.400,325.105 333.950,325.914 333.400 C 328.870 331.391,328.800 331.178,328.800 342.220 C 328.800 352.510,328.928 353.373,330.668 354.800 C 334.108 357.621,338.436 356.484,340.185 352.298 C 340.679 351.114,340.800 348.977,340.800 341.392 L 340.800 331.958 342.900 333.120 C 344.055 333.760,345.990 334.874,347.200 335.597 C 348.410 336.320,349.985 337.247,350.700 337.656 C 353.367 339.182,354.839 340.022,356.212 340.800 C 360.372 343.157,365.600 340.372,365.600 335.800 C 365.600 333.130,364.205 331.525,359.598 328.900 C 358.829 328.461,356.400 327.069,354.200 325.806 C 352.000 324.543,349.419 323.063,348.465 322.517 C 346.531 321.412,346.515 321.450,349.700 319.648 C 350.525 319.182,351.785 318.463,352.500 318.051 C 353.215 317.640,355.600 316.267,357.800 315.000 C 366.317 310.098,367.937 306.580,363.538 302.538 C 360.641 299.876,359.428 300.199,348.456 306.549 C 344.417 308.887,341.042 310.800,340.956 310.800 C 340.870 310.800,340.800 306.568,340.800 301.396 C 340.800 290.048,339.678 286.643,336.000 286.834 C 335.670 286.851,335.940 287.104,336.600 287.396 M158.412 287.753 C 158.405 287.947,158.720 288.397,159.112 288.753 C 159.503 289.109,160.031 289.850,160.285 290.400 C 160.618 291.123,160.753 291.208,160.773 290.706 C 160.788 290.325,160.265 289.425,159.612 288.706 C 158.958 287.988,158.418 287.559,158.412 287.753 M240.250 288.814 C 239.672 289.500,239.207 290.453,239.216 290.931 C 239.228 291.596,239.417 291.429,240.019 290.221 C 240.453 289.353,241.025 288.508,241.292 288.343 C 241.559 288.178,241.669 287.936,241.538 287.805 C 241.407 287.674,240.827 288.128,240.250 288.814 M160.893 301.300 C 160.796 311.671,160.935 312.444,162.620 310.838 C 162.829 310.638,163.675 310.098,164.500 309.638 C 165.325 309.177,166.630 308.440,167.400 308.000 C 168.170 307.560,169.441 306.837,170.226 306.392 C 172.463 305.125,173.639 304.305,173.467 304.133 C 173.380 304.046,171.889 304.817,170.154 305.845 C 165.052 308.870,161.641 310.800,161.395 310.800 C 161.296 310.800,161.163 306.435,161.100 301.100 L 160.985 291.400 160.893 301.300 M238.800 301.400 C 238.800 306.570,238.721 310.800,238.624 310.800 C 238.527 310.800,235.051 308.837,230.900 306.437 C 219.379 299.778,218.122 299.567,214.891 303.754 C 212.217 307.218,214.118 310.629,220.859 314.462 C 223.313 315.858,226.059 317.430,226.961 317.957 C 227.862 318.483,229.160 319.231,229.845 319.619 C 230.530 320.007,231.476 320.565,231.947 320.860 L 232.803 321.394 231.901 322.088 C 231.406 322.470,231.180 322.780,231.400 322.778 C 231.620 322.776,232.142 322.516,232.559 322.200 C 233.626 321.392,233.075 320.850,228.661 318.357 C 224.450 315.978,220.481 313.726,218.250 312.446 C 214.554 310.327,213.366 307.101,215.184 304.119 C 217.483 300.348,220.394 300.727,229.118 305.936 C 230.282 306.631,231.407 307.200,231.618 307.200 C 231.828 307.200,232.000 307.346,232.000 307.525 C 232.000 307.704,232.630 308.098,233.400 308.400 C 234.170 308.702,234.800 309.096,234.800 309.275 C 234.800 309.454,235.025 309.604,235.300 309.609 C 235.575 309.614,236.250 309.970,236.800 310.400 C 239.175 312.257,239.200 312.164,239.200 301.600 C 239.200 296.320,239.110 292.000,239.000 292.000 C 238.890 292.000,238.800 296.230,238.800 301.400 M178.257 301.414 C 176.515 302.062,173.877 303.611,174.113 303.847 C 174.199 303.932,175.243 303.465,176.434 302.808 C 179.941 300.875,183.144 301.376,184.816 304.119 C 186.543 306.951,185.398 310.413,182.136 312.224 C 181.220 312.732,179.267 313.880,177.795 314.774 C 176.323 315.668,175.062 316.400,174.992 316.400 C 174.854 316.400,169.153 319.721,167.673 320.663 C 166.613 321.338,166.922 321.992,168.742 322.926 C 169.324 323.225,170.450 323.842,171.245 324.297 C 172.040 324.752,173.120 325.367,173.645 325.662 C 174.170 325.958,174.690 326.290,174.800 326.400 C 174.910 326.510,175.630 326.941,176.400 327.357 C 183.946 331.438,185.600 332.949,185.600 335.767 C 185.600 340.156,180.981 342.648,177.012 340.400 C 174.640 339.056,173.227 338.240,167.129 334.691 C 163.901 332.812,161.156 331.378,161.029 331.504 C 160.903 331.630,160.800 336.105,160.800 341.448 C 160.800 348.347,160.655 351.487,160.301 352.281 C 158.616 356.057,154.305 356.986,151.323 354.215 C 149.771 352.774,149.600 351.522,149.600 341.598 C 149.600 335.354,149.454 331.957,149.180 331.787 C 148.948 331.645,145.933 333.145,142.480 335.122 C 139.026 337.099,135.480 339.112,134.600 339.596 C 133.720 340.080,132.829 340.638,132.620 340.838 C 130.675 342.693,125.783 340.217,124.640 336.800 C 124.309 335.810,124.030 335.288,124.019 335.640 C 123.926 338.752,126.739 341.600,129.905 341.600 C 132.297 341.600,131.830 341.820,142.540 335.652 C 146.027 333.643,148.952 332.000,149.040 332.000 C 149.128 332.000,149.200 336.430,149.200 341.846 C 149.200 351.133,149.248 351.777,150.047 353.198 C 151.707 356.152,155.454 357.236,158.004 355.500 C 160.992 353.466,160.987 353.491,161.119 342.172 C 161.185 336.577,161.306 332.000,161.388 332.000 C 161.470 332.000,163.126 332.923,165.068 334.051 C 168.712 336.168,170.261 337.062,172.500 338.344 C 173.215 338.753,174.753 339.653,175.918 340.344 C 180.883 343.289,185.994 341.033,185.999 335.894 C 186.001 332.278,185.157 331.592,170.912 323.636 C 167.137 321.528,167.118 321.444,170.031 319.768 C 185.966 310.600,186.001 310.572,185.999 306.906 C 185.995 302.784,182.066 299.996,178.257 301.414 M96.101 307.000 C 96.105 307.880,96.187 308.193,96.283 307.695 C 96.379 307.198,96.375 306.478,96.275 306.095 C 96.175 305.713,96.096 306.120,96.101 307.000 M304.001 308.940 C 304.000 309.776,306.684 312.649,307.089 312.244 C 307.234 312.100,306.942 311.695,306.442 311.344 C 305.941 310.993,305.188 310.143,304.767 309.453 C 304.208 308.536,304.003 308.398,304.001 308.940 M94.272 310.638 C 93.432 311.607,92.585 312.400,92.390 312.400 C 92.195 312.400,91.082 312.968,89.918 313.662 C 88.753 314.357,87.440 315.123,87.000 315.365 C 81.713 318.274,77.200 321.046,77.200 321.385 C 77.200 321.874,78.782 322.951,79.073 322.660 C 79.181 322.553,78.876 322.254,78.395 321.997 C 77.407 321.468,77.516 321.343,80.400 319.698 C 93.503 312.224,94.882 311.341,95.627 309.949 C 96.380 308.543,95.860 308.807,94.272 310.638 M307.600 312.565 C 307.600 312.710,310.516 314.447,315.300 317.152 C 321.540 320.680,322.470 321.290,322.125 321.634 C 321.789 321.969,311.010 328.269,308.225 329.758 C 306.229 330.825,304.000 333.019,304.001 333.913 C 304.002 334.360,304.277 334.150,304.787 333.314 C 305.519 332.113,306.900 331.063,310.226 329.179 C 310.982 328.750,312.205 328.057,312.945 327.638 C 313.685 327.218,314.720 326.633,315.245 326.338 C 315.770 326.042,316.290 325.710,316.400 325.600 C 316.510 325.490,317.030 325.158,317.555 324.862 C 318.080 324.567,319.090 323.999,319.800 323.600 C 323.190 321.696,323.405 321.371,321.900 320.429 C 317.537 317.696,307.600 312.231,307.600 312.565 M141.400 322.463 C 140.960 322.705,139.160 323.753,137.400 324.792 C 135.640 325.832,133.390 327.134,132.400 327.686 C 126.129 331.183,124.356 332.688,124.419 334.462 C 124.430 334.758,124.745 334.378,125.119 333.617 C 125.826 332.181,127.475 330.882,130.709 329.213 C 131.749 328.677,133.320 327.764,134.200 327.186 C 135.080 326.608,136.070 326.018,136.400 325.876 C 136.730 325.734,137.900 325.066,139.000 324.391 C 140.100 323.717,141.315 323.062,141.700 322.936 C 142.085 322.810,142.400 322.548,142.400 322.353 C 142.400 321.920,142.388 321.921,141.400 322.463 M79.600 323.119 C 79.600 323.332,79.915 323.610,80.300 323.736 C 80.685 323.862,81.810 324.448,82.800 325.039 C 83.790 325.630,85.185 326.448,85.900 326.857 C 86.615 327.265,87.875 327.988,88.700 328.462 C 89.525 328.935,90.899 329.700,91.752 330.162 C 93.289 330.991,94.253 331.850,95.388 333.400 C 95.711 333.840,95.980 333.985,95.987 333.722 C 96.015 332.685,88.736 327.200,87.332 327.200 C 87.217 327.200,86.646 326.867,86.062 326.461 C 83.947 324.989,79.600 322.740,79.600 323.119 M226.000 325.449 C 223.470 326.903,220.840 328.415,220.155 328.809 C 219.470 329.203,218.480 329.767,217.955 330.062 C 211.736 333.564,213.106 341.600,219.922 341.600 C 221.712 341.600,222.579 341.219,228.260 337.938 C 231.747 335.923,235.500 333.771,236.600 333.154 L 238.600 332.032 238.811 341.516 L 239.022 351.000 239.111 341.300 C 239.171 334.755,239.064 331.600,238.781 331.600 C 238.367 331.600,234.404 333.788,229.000 337.002 C 221.301 341.581,219.250 342.144,216.756 340.368 C 213.136 337.791,213.747 333.002,218.000 330.605 C 218.990 330.048,220.700 329.049,221.800 328.386 C 222.900 327.724,224.070 327.064,224.400 326.920 C 224.730 326.776,225.090 326.555,225.200 326.429 C 225.391 326.210,228.006 324.769,229.897 323.840 C 230.390 323.598,230.795 323.265,230.797 323.100 C 230.801 322.670,231.016 322.565,226.000 325.449 M96.101 335.800 C 96.105 336.680,96.187 336.993,96.283 336.495 C 96.379 335.998,96.375 335.278,96.275 334.895 C 96.175 334.513,96.096 334.920,96.101 335.800 M388.070 360.450 C 388.031 361.028,387.898 362.108,387.773 362.850 C 387.589 363.951,387.630 364.070,387.996 363.495 C 388.243 363.107,388.377 362.027,388.293 361.095 C 388.209 360.163,388.108 359.873,388.070 360.450 M385.973 366.760 C 384.363 369.288,382.136 370.999,379.080 372.055 C 377.590 372.570,377.293 372.778,378.032 372.787 C 380.926 372.824,388.258 366.678,387.524 364.830 C 387.456 364.659,386.758 365.528,385.973 366.760 M90.200 373.414 C 88.962 374.043,87.445 375.579,87.756 375.889 C 87.852 375.986,88.504 375.465,89.205 374.732 L 90.478 373.400 233.539 373.198 L 376.600 372.996 234.000 372.901 C 106.920 372.815,91.269 372.871,90.200 373.414 M86.872 377.700 C 86.480 379.151,86.648 379.685,87.216 378.788 C 87.600 378.181,87.746 376.400,87.411 376.400 C 87.308 376.400,87.065 376.985,86.872 377.700 " stroke="none" fill="#3c5547" fill-rule="evenodd"></path></g></svg>